<svg xmlns="http://www.w3.org/2000/svg" viewBox="0 0 620.55 447.94"><defs><style>.cls-1{fill:#fff;}.cls-2{fill:#1e0fe8;}.cls-3{fill:#f4c076;}</style></defs><title>footer_logo</title><g id="blue"><ellipse class="cls-1" cx="312.79" cy="367.34" rx="204.66" ry="42.42"/><path class="cls-2" d="M312.79,413.73c-54.92,0-106.61-4.44-145.52-12.51-41.87-8.68-63.1-20.08-63.1-33.88s21.23-25.2,63.1-33.87C206.18,325.4,257.87,321,312.79,321s106.61,4.44,145.53,12.51c41.87,8.67,63.1,20.07,63.1,33.87s-21.23,25.2-63.1,33.88C419.41,409.29,367.72,413.73,312.79,413.73Zm0-84.84c-54.4,0-105.51,4.38-143.91,12.34-54,11.2-56.78,23.72-56.78,26.11s2.74,14.91,56.78,26.12c38.4,8,89.51,12.34,143.91,12.34s105.52-4.39,143.92-12.34c54-11.21,56.78-23.72,56.78-26.12s-2.74-14.91-56.78-26.11C418.31,333.27,367.2,328.89,312.79,328.89Z"/><path class="cls-3" d="M470.87,52.06c0,.33.07.65.12,1l.31-1.14,4.43-16C471,40.55,470.26,46.77,470.87,52.06Zm0,0c0,.33.07.65.12,1l.31-1.14,4.43-16C471,40.55,470.26,46.77,470.87,52.06Z"/><path class="cls-3" d="M471.3,51.89,471,53c-.05-.32-.08-.64-.12-1Z"/><path class="cls-1" d="M161.07,317c32.88-9.82,88.56-16.28,151.72-16.28,101.06,0,183,16.53,183,36.91s-81.92,36.91-183,36.91-183-16.52-183-36.91c0-7.64,11.52-14.74,31.25-20.63"/><path class="cls-2" d="M312.79,378.53c-49.13,0-95.36-3.87-130.16-10.89-37.68-7.6-56.78-17.69-56.78-30,0-9.59,11.15-17.58,34.08-24.43h0c34.48-10.3,91.62-16.44,152.86-16.44,49.14,0,95.36,3.86,130.17,10.89,37.68,7.6,56.78,17.69,56.78,30s-19.1,22.39-56.78,30C408.15,374.66,361.93,378.53,312.79,378.53ZM162.2,320.82c-20.95,6.25-28.42,12.8-28.42,16.83,0,13.76,68.1,33,179,33s179-19.19,179-33-68.11-32.94-179-32.94c-60.51,0-116.81,6-150.59,16.11Z"/><path class="cls-2" d="M312.79,378.53c-49.13,0-95.36-3.87-130.16-10.89-37.68-7.6-56.78-17.69-56.78-30,0-9.59,11.15-17.58,34.08-24.43l2.27,7.6c-20.95,6.25-28.42,12.8-28.42,16.83,0,13.76,68.1,33,179,33s179-19.19,179-33c0-5-11.38-13.49-43.46-20.73l1.74-7.73c32.94,7.43,49.65,17,49.65,28.46,0,12.3-19.1,22.39-56.78,30C408.15,374.66,361.93,378.53,312.79,378.53Z"/><path class="cls-1" d="M554.91,19.43a3,3,0,0,0-3.71-2.31c-1.85.5-4.41,1.18-7.26,1.85-6.75,1.57-15.19,3.13-20,2.42-9-1.29-16.66-5.73-28.38-3.54a37.86,37.86,0,0,0-18.37,8.78c-9.81-.26-20,13-28.94,24.89s-4.22,15.78,2,19.85v0c-.39-.24-.7-.42-.91-.56-.11.35-.23,2-.36,2.3-4.26,12.21-8.25,28.59-28.06,39.43-27.86,15.24-76.76,1.73-126.37,8.45-24.94,3.38-37.22,8.72-47.5,17.48h0c-24.5,20.9-30.37,63.92-32.8,81.81-.11.77-.21,1.55-.3,2.32-1.78,14.24-2.16,28.14-10.72,40.84a64.94,64.94,0,0,1-23.37,20.61,3,3,0,0,0-1.56,2.7c.22,7,.08,32.17-11.77,50.1a2.93,2.93,0,0,0,1.1,4.25c1.62.77,9.89,1.39,15.06,1.08a2.17,2.17,0,0,0,2-2c.07-.88.12-2.05.15-3.39.13-4.72.17-11.65.17-16.47,0-24.57,60.22-61.73,67.45-69.08,10.63-10.77,22.68-23.83,31.44-38.83l.05,0c1.4-.94,2.19-2.23,4.83-3.66a.06.06,0,0,1,.05,0,84.52,84.52,0,0,1,9.8-4.47h0a80.52,80.52,0,0,1,24-5.16h0a76.74,76.74,0,0,1,14.45.55,59.13,59.13,0,0,1,6,1.12h0c2,.46,3.89,1,5.77,1.64a124.51,124.51,0,0,1,21.46,10c6,3.35,11.78,6.83,17.61,9.83h0c7.24,3.73,14.51,6.7,22.15,7.72h0c.75.1,1.48.17,2.24.23a39.94,39.94,0,0,0,9.11-.28c.21,0,.43-.05.64-.09,0,.1,0,.19.06.29,2.87,13.71,10.42,58.44,1.66,86.07a49.23,49.23,0,0,0-2.5,16.9,5.53,5.53,0,0,0,4,5.08,52.2,52.2,0,0,0,5.95,1.28,86.87,86.87,0,0,0,13.13,1S440,300.46,447,260c2.93-17.1,7.79-32.85,15.58-45.42.28-.46.57-.92.88-1.38,10.47-16.05,29.95-31.92,34.86-54C503,138,501.13,121.34,500,107.4c-.64-8.11-1.05-15.29.23-21.9a19.67,19.67,0,0,1,3-7.16,28.61,28.61,0,0,1,4.83-5.55,36.52,36.52,0,0,1,5.09-3.89,21,21,0,0,0,4.45-2,46.53,46.53,0,0,0,9.74-7.62h0c7.31-7.31,21.91-10.15,26.72-22.9h0a26.31,26.31,0,0,0,1.55-8.85A43.79,43.79,0,0,0,554.91,19.43ZM471.3,51.89,471,53c-.05-.32-.08-.64-.12-1-.61-5.29.11-11.51,4.86-16.18Z"/><path class="cls-2" d="M306.23,204.76a19.66,19.66,0,0,0-6.18,6.13,26.24,26.24,0,0,0-1.75,3.52c-3.67,8.57-5.74,21.44-12.5,30.72-11.58,15.93-30.47,30.94-41.19,46.39-.42.59-.82,1.17-1.2,1.77a18.61,18.61,0,0,1-.48,2.06c-.26.87-.33,1.9-1,2.37-10,7.32.44,40.76-.62,41.57-3.8,2.91-13.7,4.37-17.42,1.54-.06-2.42,2.19-45,2.06-47.18-.12-1.88-.24-3.63-.39-5.27-.07-.82-.14-1.6-.21-2.35-.05-.55-.12-1.08-.17-1.59q-.12-1.15-.24-2.19c-.15-1.34-.32-2.48-.44-3.41.81-1.2,1.91-3.54,3.34-4.48s2.69-3.08,4-4.06a78.33,78.33,0,0,1,8.5-7.32c4.52-4.32,8.75-6.57,12.85-11.36,3.47-4.09,6.85-8.22,10.23-12.17,5.78-6.76,11.17-13.71,16.44-20.87a49.86,49.86,0,0,1,9-9.82.06.06,0,0,1,.05,0,23.54,23.54,0,0,1,4.36-2.75,18.72,18.72,0,0,1,2.63-1.05,17.43,17.43,0,0,1,2.81-.67,0,0,0,0,1,0,0l.31-.05A15.08,15.08,0,0,1,306.23,204.76Z"/><path class="cls-2" d="M426.75,233,423,230.49c-.16.6-.36-1.31-.61-.74l-.15.32a2.8,2.8,0,0,0-.06-.28l-.64.08a40,40,0,0,1-9.11.29c-.76-.06-1.49-.14-2.24-.24h0c-7.64-1-14.91-4-22.15-7.71h0c-5.83-3-11.65-6.49-17.61-9.83a124.56,124.56,0,0,0-21.46-10c-1.88-.62-23.22-3.4-25.18-3.86,5.6-.68-5.78-8.72-.38-7.5,2.16.49,41,12,42.92,12.62,16.61,5.58,44.9,2.3,46.12,2.26C423.68,205.57,427,232.15,426.75,233Z"/><path class="cls-2" d="M517.62,66.88a20.5,20.5,0,0,1-4.45,2,37.31,37.31,0,0,0-5.09,3.89,29,29,0,0,0-4.83,5.56,19.62,19.62,0,0,0-3,7.15c-1.28,6.61-.87,13.79-.23,21.91,1.13,13.94,3,30.61-1.7,51.78-4.91,22.08-20.42,39.27-30.9,55.32-15.07,18.46-11.79,77.68-11.79,116.86,0,4.05.32,8.32-4.28,8.32l-6.84.73c-4.2,0-16.84-.34-21.06-1,.31-21.37,9-42.73,11.88-64,.7-5.18,1.52-10.33,2.47-15.42,2.75-14.65,5.36-29,10.59-43.05a3.4,3.4,0,0,0,.12-.34c6.56-17.66,22.65-35,29.55-52.58,7.3-18.58,10-35.46,9.41-56.54-.17-6.06,1.47-11.59,2.5-17.6,1.33-7.73,5.16-9.58,8.87-13.42a34.86,34.86,0,0,1,3.23-3,33.85,33.85,0,0,1,5.3-3.6c.19-.12.41-.23.62-.34.42-.22.85-.45,1.29-.65A34.34,34.34,0,0,1,514,67.12a7.12,7.12,0,0,1,3.06-.31A3.55,3.55,0,0,1,517.62,66.88Z"/><path class="cls-2" d="M555.64,27.49a26.22,26.22,0,0,1-1.55,8.85h0c-4.81,12.75-19.41,15.6-26.72,22.9h0a46.64,46.64,0,0,1-9.74,7.63,20.5,20.5,0,0,1-4.45,2,37.31,37.31,0,0,0-5.09,3.89,29,29,0,0,0-4.83,5.56,26.36,26.36,0,0,1-4.43-1.84A24.47,24.47,0,0,1,492.65,72h0a1.59,1.59,0,0,1-.13-.13c-5.28-5.34-2.12-14.28,4.13-16.21a8.41,8.41,0,0,1,3.46-.32c.59,0,1.18.26,1.82.37,5,.9,9.61,1.6,14.43-2,3.79-2.8,11-7.87,19.41-10.23,6-1.67,15.86-7.78,15.69-11.61,0-.35.46-.49.7-.73C553.34,30,554.51,28.75,555.64,27.49Z"/><path class="cls-2" d="M508,69.6a6,6,0,0,1-.46.82,23.37,23.37,0,0,1,.57,2.37,29,29,0,0,0-4.83,5.56,19.62,19.62,0,0,0-3,7.15c-1.28,6.61-.87,13.79-.23,21.91-5.13,2-15.88,12.07-10.17-9.76.65-2.49.89-10.1,1.36-12.69.7-3.78,1.36-5.08,1.63-8.84.31-4.16-2.31-5.67-3.65-9a9.3,9.3,0,0,1-.7-4.7c.56-4.6,6.5-8.84,13.12-6.8.26.05-4.42.16-4.15.26l.38.14h0c1.89.62,3.76,1.27,5.64,1.9l.6.23a5.64,5.64,0,0,1,.95.48h0a7.24,7.24,0,0,1,2.29,2,7.41,7.41,0,0,1,1.42,3c0,.14.06.28.09.41a8.82,8.82,0,0,1-.59,5C508.17,69.2,508.07,69.4,508,69.6Z"/><path class="cls-2" d="M506.89,64.19v-.51a8,8,0,0,0-2.29-5.52,7.81,7.81,0,0,0-11,0,8.14,8.14,0,0,0-2.29,5.52v.51a8,8,0,0,0,2.29,5.51,7.79,7.79,0,0,0,11,0,8.05,8.05,0,0,0,2.29-5.51Z"/><path class="cls-2" d="M241.42,142.26c-5.35,9.67-11.87,17-16.46,27-6.75,14.82-8.13,29.75-10.38,46.13-.2,1.54-1.91,2.82-2.57,3.88-.17-14.56-2.68-30,2-43.69C220,157.68,234,149.58,241.42,142.26Z"/><path class="cls-2" d="M453.91,73.38c1.44.9,3,2,4.58,3.14,6.41,4.7,13.07,10.56,13.07,10.56,5.79-1.32,12.38-8.35,4-21.67a37.79,37.79,0,0,1-2-3.52c-.8-1.65-2.87-11.49-2.24-16.78.79-6.58,4.36-8,5.6-8-10.84,15.17,4.9,24,9.18,36.77C490,85.34,480.68,96,474.7,98.13c-25.3,8.81-29.13,9.28-61.18,21.91-6.92,2.72,9.54-6.17,22.42-19.63,9.44-9.86,15.08-25.56,15.12-26s2.61-.77,2.73-1.13Z"/><path class="cls-2" d="M555.64,26.47A27.81,27.81,0,0,1,554,35.88c-.93-1.57-2.88-2.89-2.8-4.72.3-6.84-3.86-10.28-13.28-11.11,3-.72,11.05-4.08,13-4.62a3.16,3.16,0,0,1,3.94,2.46A46.2,46.2,0,0,1,555.64,26.47Z"/><path class="cls-2" d="M299.26,156c.32,7.31-1.55,13.62-3.56,20.74S283,207.31,276.3,215.41c-4.95,6,12.47,7.81,12.95,0,1.59-26.29,94.79-8.25,85.09-9.8-37.16-6-64.75-43.76-66.11-52.2-.93-5.8-9.23-4.43-9,1.38Z"/><path class="cls-2" d="M490.71,64.42c12,13.18,27.76,8.81,39.46-2.37,3.7-3.53-1.92-9.14-5.61-5.61-8.7,8.32-19.3,12.2-28.25,2.38-3.44-3.79-9,1.84-5.6,5.6Z"/><path class="cls-2" d="M496,338.48v15.31c0,20.82-82,37.7-183.22,37.7-100,0-181.33-16.49-183.2-37,0-.24,0-.49,0-.73V338.48c0,20.83,82.05,37.7,183.24,37.7S496,359.31,496,338.48Z"/><path class="cls-2" d="M492.06,338.48c0,5.26,1.73,13.23-.86,18-3.35,6.16-13,9.47-19.07,11.73-28.19,10.49-59.36,13.9-89.13,16.44a837.37,837.37,0,0,1-123.5,1.25c-32.49-2-65.82-5.27-97.11-14.71-8.72-2.63-20-5.78-26.45-12.76-4.53-4.93-2.41-13.78-2.41-19.95H125.6c.5,14.93,22.64,21.36,33.87,24.8,28.24,8.67,58.29,12.05,87.63,14.37a844.65,844.65,0,0,0,117.55,1c31.13-1.88,62.77-5.06,93-12.94,12.6-3.29,41.73-9.81,42.31-27.19.17-5.1-7.76-5.09-7.93,0-.15,4.53-5.9,7.72-9.31,9.63-8,4.47-16.93,7.17-25.71,9.52-27.43,7.34-56,10.5-84.25,12.51a852.73,852.73,0,0,1-107.12.81c-30-1.63-60.24-4.56-89.53-11.42-10.4-2.44-21-5.26-30.64-10-4-2-11.79-5.63-12-11-.17-5.08-7.93-5.12-7.93,0,0,6.57-1.65,15.39,1.63,21.44,3.75,6.91,11.88,10.85,18.78,13.8,28.8,12.32,62,15.74,92.88,18.54a830.28,830.28,0,0,0,133.9,1.12c33-2.35,67.63-5.66,99.07-16.67,8.81-3.08,19.62-7,25.31-14.95,4.62-6.45,2.82-15.84,2.82-23.28C500,333.38,492.06,333.37,492.06,338.48Z"/><path class="cls-2" d="M517.46,367.66v17.08c0,23.26-91.63,42.11-204.66,42.11S108.13,408,108.13,384.74V367.66c0,23.25,91.64,42.1,204.66,42.1S517.46,390.91,517.46,367.66Z"/><path class="cls-2" d="M513.49,367.66v13.39c0,2.68.24,4.85-1.19,7.19-4.15,6.78-14.27,10.39-21.25,13-31.69,11.83-66.81,15.64-100.27,18.48A937.33,937.33,0,0,1,252.09,421c-36.16-2.31-73.31-5.95-108.12-16.59-9.7-3-22.63-6.6-29.53-14.68-4.68-5.47-2.34-15.45-2.34-22.07h-7.93c.49,16.26,24.82,23.32,37,27.1,31.6,9.79,65.29,13.58,98.15,16.18A944.23,944.23,0,0,0,371.15,412c34.59-2.11,69.73-5.66,103.36-14.42,11.69-3.05,23.9-6.67,34.28-13,6.12-3.75,12.4-9.14,12.63-16.87.16-5.1-7.78-5.1-7.93,0-.16,5.29-6.75,9-10.75,11.21-8.73,4.87-18.52,7.87-28.13,10.46-31,8.37-63.34,11.93-95.27,14.19a952.17,952.17,0,0,1-119,.88c-33.58-1.82-67.45-5.09-100.26-12.77-11.74-2.75-23.76-5.93-34.6-11.35-4.63-2.32-13.23-6.45-13.41-12.62-.15-5.09-7.93-5.12-7.93,0,0,7.28-1.88,17.11,1.81,23.81,4.2,7.63,13.33,12,21,15.22,31.77,13.5,68.25,17.33,102.28,20.46a926.68,926.68,0,0,0,150.12,1.39c36.93-2.61,75.63-6.31,110.81-18.58,9.77-3.4,21.69-7.75,28.08-16.43,5.24-7.11,3.18-17.62,3.18-25.87C521.42,362.56,513.49,362.55,513.49,367.66Z"/><path class="cls-2" d="M418.38,230.84c4.51,20.76,6.81,42.81,5.29,64-.88,12.24-6.35,24-6.24,36.18.11,13.71,16.83,13.2,27.06,13.33,2,0,4.2-1.84,4-4a293.13,293.13,0,0,1-1.34-37.48c.44-23.64,2.72-48.14,11.1-70.43,7-18.65,21-31.59,32.24-47.56,12-17,15.24-36.91,14.8-57.41-.38-18-9.2-45.65,11.1-55.64,5.66-2.78,9.84-7.16,15.11-10.28,5.53-3.27,11-6.35,15.94-10.52,5.38-4.53,9.8-10.08,11.44-16.93,1.35-5.65,2.5-18.75-5-20.86-3.39-1-7.77,1.08-11,1.83-5.35,1.25-11,2.62-16.54,2.44-9.37-.3-17.79-4.93-27.41-4.15a43.86,43.86,0,0,0-23.34,9.33c-1.66,1.3-.9.1.1,0a20.92,20.92,0,0,0-5.5,1.42c-4.35,1.82-8.07,5-11.37,8.3A127.38,127.38,0,0,0,448.2,45c-3.26,4.25-7.12,8.73-8.42,14.06-1.79,7.29,2.87,12,8.5,15.72,4.27,2.82,8.25-4,4-6.85-2.29-1.52-4.92-3-4.93-6,0-4.61,5.51-10.09,8.09-13.42,5.5-7.07,11.74-15.6,20.78-17.85,4.46-1.1,7.55-4.45,11.88-6.4,9.29-4.18,18.24-3,27.76-.59,8.26,2.12,15.49,1.87,23.83.24,2.13-.41,4.24-.89,6.34-1.39a15.74,15.74,0,0,1,3-.74c2,0,.84-1,2.13.71,2.07,2.78.26,10.33-.94,13.3-3.43,8.51-16.06,14.24-24.75,20-2.88,1.9-5.13,4.69-8.07,6.59s-6.06,2.87-8.8,4.92c-6.05,4.54-10.95,10.56-12.33,18.14-3.12,17.12,1.83,35.22.95,52.55-.53,10.54-2,21.6-6.57,31.22-3.79,7.93-9.17,15-14.73,21.73-10.72,13.06-20.34,25.36-26.06,41.51-7.8,22-10.12,46.15-10.62,69.39a295.79,295.79,0,0,0,1.32,38.58l4-4c-5.26-.07-17.32.9-19.13-5.4-1.49-5.18,2.29-13,3.53-18,2.57-10.32,3.2-21.14,3.09-31.74a262.41,262.41,0,0,0-6-52.62c-1.09-5-8.73-2.88-7.65,2.11Z"/><path class="cls-2" d="M472.93,33.08c-6.53,7.19-7.42,16.63-4.7,25.73,2,6.65,13.93,21.17,2.28,24.44l3.86,1a170.47,170.47,0,0,0-23-16.85c-2-1.22-5.44-.17-5.83,2.37-1.71,11.19-7.82,23.76-15.92,31.62-10.73,10.41-25,13.66-39.48,14.51-34.71,2-69.13-3.48-103.74,2.36-24.71,4.18-45.06,14.56-57.67,36.94-11.17,19.84-15.51,42.78-18.44,65.11-2.36,18-3.37,35.27-16.91,48.93a59.52,59.52,0,0,1-9,7.5c-2.28,1.54-5.27,2.67-7.28,4.54-3.59,3.33-2.58,7.95-2.74,12.42-.49,13.84-3.37,27.32-10.13,39.48-6.89,12.39,9.43,14.57,18.51,13,6.13-1.06,6.09-6.1,6.2-11.23.14-6.12-1-13.26.93-19.2,2.86-9,10.45-16.53,17.07-22.92,14.2-13.72,30.74-24.24,46-36.65,11.29-9.19,21.22-21.8,29.41-33.75,2.1-3.06,3.18-6.3,6-8.43a44.75,44.75,0,0,1,11.47-5.93,76.61,76.61,0,0,1,23-5c20.69-1.18,37.09,7.9,54.55,17.78,14.25,8.06,28.94,15.06,46,12.76,5-.67,2.89-8.32-2.11-7.64-16.43,2.21-30.84-6.83-44.27-14.49-13.27-7.56-26.8-14.56-42.21-16.09a83.8,83.8,0,0,0-42.31,7.24c-4.24,1.9-8.87,4.14-11.84,7.84-5.63,7-10,15-15.88,21.95-6.51,7.61-13.19,15.13-21.24,21.12-7.5,5.58-15.07,11.06-22.43,16.84-14.23,11.15-34.19,25.75-39.07,44.26-1.2,4.56-.8,9.35-.84,14,0,1.76.15,9.59,0,9.69-1.26.92-9.35.16-10.68-.56-2.21-1.21.05.44.65-.57,1-1.73,2-3.49,2.84-5.31a78.18,78.18,0,0,0,3.35-8.35,99,99,0,0,0,4.37-20.93c.49-4.34-.08-9.15.72-13.39.53-2.77,2-3,4.53-4.63a75.48,75.48,0,0,0,9.13-6.88c11.87-10.49,17.87-24.07,20.08-39.55,3.38-23.59,5.3-47.33,14.86-69.51,4.81-11.15,11.53-21.81,21.31-29.24s22-10.9,34.07-13.09c20.6-3.75,41.56-3.64,62.41-2.94,16.94.56,34.1,1.8,51-.42,14.46-1.91,28.21-7.43,38.07-18.57,7.54-8.51,13.72-21.17,15.45-32.49l-5.82,2.37a168.78,168.78,0,0,1,20,14.44c4.54,3.81,9.71,1.49,13.15-3,11.77-15.36-16.1-31.51-2-47,3.42-3.78-2.17-9.4-5.61-5.61Z"/><path class="cls-2" d="M322.7,195.13c-11.42,1.43-22.89,6.2-27.83,17.27-5.19,11.64-6.83,23.78-15,34C271.4,257,261.32,266.05,252.22,276c-8.21,9-16.95,19.28-19.16,31.6a38,38,0,0,0,1.11,16.58c.72,2.7,1.66,5.33,2.48,8s1.88,4-.45,5.27c-1.79,1-5.64,0-7.63,0-1.29,0-2.32-1.12-1.56.19-.2-.34,1-4.59,1-4.58a143.1,143.1,0,0,0,2.26-21.76,191.59,191.59,0,0,0-.42-19.47q-.26-3.69-.64-7.37c-.19-1.76.05-6.75-1-8.16l-.14-.93q-2.67,5.17-.2,2.84c1.3-.4,2.84-2.21,3.93-3.06,2.06-1.62,4.1-3.26,6.11-4.94q9.12-7.62,17.49-16.1a221.3,221.3,0,0,0,15.06-16.9c5.2-6.52,9.16-14.3,14.48-20.6,7.68-9.08,26.21-12.69,37.84-13.53,5.06-.37,5.1-8.3,0-7.93A87.85,87.85,0,0,0,285,206.38c-4.92,2.84-6.42,5.53-9.55,10.39a189.27,189.27,0,0,1-16.6,21.93,240.78,240.78,0,0,1-32.7,30.82c-3.37,2.65-5.94,3.59-5.77,7.94.26,6.89,1.62,13.78,1.89,20.7a176.7,176.7,0,0,1-.29,19.93,115.21,115.21,0,0,1-1.62,12.84c-.57,3-2.52,7.1-1.32,10.24,2.51,6.57,19,5.58,23.66,2.24,3.08-2.19,3.43-5.57,2.8-9.06-1.25-6.9-4.82-13.12-5-20.28-.41-15.47,13.44-28.53,23.37-38.8,10.89-11.26,23.94-22.43,30.31-37.06,2.76-6.36,4.38-13.07,6.75-19.56,3.53-9.67,11.88-14.34,21.82-15.59C327.69,202.43,327.76,194.49,322.7,195.13Z"/><path class="cls-2" d="M244.25,135.72c-13.19,11.62-20.9,28-25.94,44.6a201.35,201.35,0,0,0-5.49,23.35c-1.08,6-.94,13.48-3.18,19.19h7.65c-4.15-29.07,1.46-67.33,31.77-80.91,4.65-2.08.62-8.92-4-6.85-13.28,6-23.9,19.27-29.85,32.18-8.27,17.95-8.31,38.47-5.57,57.69.62,4.33,6.41,3.15,7.65,0,2.05-5.23,2-12.23,2.93-17.79A212.74,212.74,0,0,1,225,185.7c4.64-16.48,11.78-32.85,24.86-44.37C253.7,138,248.07,132.36,244.25,135.72Z"/><path class="cls-2" d="M172.65,340.08a5.44,5.44,0,0,0,7.22-1c2.82-3.11,0-7.16-3.84-6.59a12.71,12.71,0,0,0-7.11,3.51c-2.58,2.29-.5,6.8,2.79,6.74a19.4,19.4,0,0,0,13.76-5.67,4,4,0,0,0-.8-6.19c-4.59-2.35-9.32-2.35-13.58.77l4.78,6.19c4.22-4,6-9,7-14.68,1.4-7.9,2.61-14.62,7.95-21,10.35-12.42,24.67-21.8,39.19-28.59,4.6-2.15.6-9-4-6.81-14.57,6.81-28.44,16.21-39.32,28.16-4.78,5.26-8.51,11.14-10.07,18.13-1.47,6.57-1.09,14.29-6.32,19.24-3.17,3,1.1,8.89,4.78,6.2,1.5-1.55,3.37-1.8,5.62-.77l-.8-6.19a10.93,10.93,0,0,1-8.18,3.35l2.79,6.73,3.63-1.49-3.84-6.59,2.34-.23c-4.41-2.53-8.39,4.29-4,6.81Z"/><path class="cls-2" d="M423,301.3c-.87,7.77-2.16,15.63-2.6,23.43-.3,5.45.63,10.2,4.57,14.16,2.66,2.68,7.92,0,6.59-3.84-3.37-9.68-2.83-18.57-.9-28.48,1-5-6.64-7.09-7.61-2.1-2.18,11.21-2.91,21.71.9,32.68l6.6-3.84c-4.09-4.11-2-11.18-1.42-16.29l1.76-15.72c.57-5-7.33-5-7.89,0Z"/><path class="cls-2" d="M420.2,314.58a15.44,15.44,0,0,0,2,11.65,14.76,14.76,0,0,0,3.92,4.11c.89.62,2,1,2.84,1.56l-.44-1.08A7,7,0,0,1,427,332l5.93,3.41-.11-1.76c-.31-5-8.21-5.08-7.89,0l.11,1.76c.18,2.81,3.28,5.14,5.94,3.4,3.72-2.43,7.29-6.65,4.58-11.26-1.32-2.24-3.61-2.5-5.42-4.09a7.23,7.23,0,0,1-2.28-6.79c1-5-6.63-7.08-7.61-2.1Z"/><path class="cls-1" d="M440.62,203.59q-3.6,28.56-6.47,57.22c-1.35,13.47-2.63,27-3.32,40.5-.35,6.78-1.89,16.12,1.16,22.52,2.2,4.6,9,.59,6.85-4,.36.74-.17-1.31-.23-1.87a46.6,46.6,0,0,1-.19-5.42c0-4.84.24-9.68.52-14.51.79-13.34,2.06-26.64,3.41-39.93q2.79-27.29,6.2-54.51c.64-5.05-7.3-5-7.93,0Z"/></g></svg>