<svg xmlns="http://www.w3.org/2000/svg" viewBox="0 0 345 345"><defs><style>.cls-1{fill:#eff4f4;}.cls-2{fill:#57f28b;}.cls-3{fill:#fff;}.cls-3,.cls-4{stroke:#092c6b;stroke-miterlimit:10;stroke-width:3px;}.cls-4{fill:none;}</style></defs><title>graduation</title><g id="shadows"><path class="cls-1" d="M265.18,217.26a88.07,88.07,0,0,1-7.83,54.89,112.59,112.59,0,0,1-136.58,15.47,111.23,111.23,0,0,1-10.83-9,7.89,7.89,0,0,1-1.67-2.3,87.24,87.24,0,0,1-8.6-37.86,90.08,90.08,0,0,1,.63-10.57,7.8,7.8,0,0,0-4.14-7.77l-3.46-1.83L35.52,188a7.76,7.76,0,0,1,.25-13.87l139.39-67.63a7.77,7.77,0,0,1,6.5-.13l156,68a7.56,7.56,0,0,1,3.32,2.72Z"/><ellipse class="cls-1" cx="167.06" cy="168.66" rx="20.16" ry="10.91"/></g><g id="Layer_1" data-name="Layer 1"><path class="cls-2" d="M258.35,210.43a88.07,88.07,0,0,1-7.83,54.89,112.59,112.59,0,0,1-136.58,15.47,111.23,111.23,0,0,1-10.83-9,8.08,8.08,0,0,1-1.67-2.3,87.23,87.23,0,0,1-8.6-37.85,89.83,89.83,0,0,1,.63-10.57,7.81,7.81,0,0,0-4.14-7.78l-3.46-1.83L28.69,181.16a7.76,7.76,0,0,1,.25-13.87L168.33,99.66a7.79,7.79,0,0,1,6.51-.12l156,68a7.56,7.56,0,0,1,3.32,2.72Z"/><ellipse class="cls-3" cx="165.69" cy="167.3" rx="20.16" ry="10.91"/><ellipse class="cls-2" cx="160.23" cy="161.84" rx="20.16" ry="10.91"/><ellipse class="cls-4" cx="165.69" cy="167.3" rx="20.16" ry="10.91"/><path class="cls-4" d="M257,210.43a87.9,87.9,0,0,1-7.82,54.89,112.59,112.59,0,0,1-156.65,0,87.9,87.9,0,0,1-7.82-54.89L5.58,168.52,162,92.64l174.08,75.88Z"/><path class="cls-4" d="M332.81,170.25,257,210.43a87.9,87.9,0,0,1-7.82,54.89,112.61,112.61,0,0,1-136.59,15.47,113.49,113.49,0,0,1-20.06-15.47,87.92,87.92,0,0,1-8-53.87q.08-.51.18-1L24.42,178.5l-18.84-10L162,92.64l174.08,75.88Z"/><polyline class="cls-4" points="84.8 210.99 170.83 256.06 256.87 210.99"/><polyline class="cls-4" points="185.86 167.29 273.26 202.8 273.26 338"/></g></svg>