<svg xmlns="http://www.w3.org/2000/svg" viewBox="0 0 360.69 344.11"><defs><style>.cls-1,.cls-4{fill:#fff;}.cls-1,.cls-3{stroke:#3f3f93;stroke-miterlimit:10;}.cls-1{stroke-width:9px;}.cls-2{fill:#f4c076;}.cls-3{fill:none;stroke-width:3px;}.cls-5{fill:#3b3b3b;}.cls-6{fill:#454c56;}.cls-7{fill:#3f3f93;}</style></defs><title>Artboard 5</title><g id="blue"><ellipse class="cls-1" cx="164.71" cy="283.72" rx="154.83" ry="33.96"/><path class="cls-2" d="M284.29,35.16c0,.25.06.49.1.74l.23-.87L288,22.92C284.38,26.45,283.83,31.16,284.29,35.16Zm0,0c0,.25.06.49.1.74l.23-.87L288,22.92C284.38,26.45,283.83,31.16,284.29,35.16Z"/><path class="cls-2" d="M284.62,35l-.23.87c0-.25-.07-.49-.1-.74Z"/><path class="cls-1" d="M49.92,236.32c24.88-7.86,67-13,114.79-13,76.45,0,138.42,13.23,138.42,29.55s-62,29.54-138.42,29.54S26.28,269.16,26.28,252.84c0-6.12,8.72-11.81,23.64-16.52"/><path class="cls-3" d="M267.91,233.15c21.91,5.22,35.22,12.12,35.22,19.69,0,16.32-62,29.54-138.42,29.54S26.28,269.16,26.28,252.84c0-6.12,8.72-11.81,23.64-16.52"/><path class="cls-4" d="M347.87,10.47a2.25,2.25,0,0,0-2.8-1.75c-1.4.39-3.34.9-5.5,1.4-5.11,1.2-11.49,2.37-15.14,1.84-6.79-1-12.61-4.34-21.47-2.68a28.63,28.63,0,0,0-13.9,6.64c-7.42-.19-15.16,9.84-21.89,18.83s-3.2,11.94,1.55,15v0c-.29-.18-.53-.32-.69-.43-.08.27-.18,1.48-.27,1.74-3.22,9.24-6.24,21.63-21.23,29.84-21.08,11.52-58.07,1.3-95.6,6.39-18.86,2.55-28.16,6.6-35.93,13.22h0c-18.54,15.81-23,48.35-24.82,61.89-.08.58-.16,1.17-.22,1.75-1.35,10.77-1.64,21.29-8.11,30.9A49.17,49.17,0,0,1,64.15,210.7a2.25,2.25,0,0,0-1.18,2c.16,5.27.06,24.34-8.91,37.91a2.22,2.22,0,0,0,.84,3.21c1.22.58,7.48,1,11.39.82a1.64,1.64,0,0,0,1.54-1.51c.06-.67.1-1.55.11-2.57.11-3.57.14-8.82.14-12.46,0-18.59,45.55-46.7,51-52.26,8-8.15,17.16-18,23.78-29.37l0,0c1.06-.72,1.66-1.69,3.66-2.78h0A63.3,63.3,0,0,1,154,150.3h0a60.94,60.94,0,0,1,18.14-3.9h0a57.54,57.54,0,0,1,10.93.42,43,43,0,0,1,4.53.84s0,0,0,0c1.48.35,2.94.77,4.37,1.24a94.6,94.6,0,0,1,16.23,7.55c4.51,2.53,8.91,5.16,13.32,7.43h0c5.48,2.82,11,5.07,16.76,5.84h0c.56.08,1.11.13,1.69.18a30.19,30.19,0,0,0,6.89-.22,4.1,4.1,0,0,0,.49-.06c0,.07,0,.14,0,.21,2.17,10.38,7.88,44.22,1.25,65.12a37.39,37.39,0,0,0-1.89,12.78,4.19,4.19,0,0,0,3,3.85,42.92,42.92,0,0,0,4.5,1,66.76,66.76,0,0,0,9.94.77s-3.37-30.23,1.88-60.85c2.22-13,5.89-24.85,11.78-34.37l.67-1c7.93-12.14,22.66-24.15,26.38-40.85,3.54-16,2.14-28.63,1.28-39.17-.49-6.14-.8-11.57.17-16.57A15.16,15.16,0,0,1,308.79,55a21.72,21.72,0,0,1,3.65-4.2,28.12,28.12,0,0,1,3.86-2.94,16.06,16.06,0,0,0,3.36-1.53A35.26,35.26,0,0,0,327,40.6h0c5.53-5.53,16.57-7.68,20.21-17.33h0a19.86,19.86,0,0,0,1.17-6.69A32.82,32.82,0,0,0,347.87,10.47Z"/><path class="cls-5" d="M159.75,150.68a14.75,14.75,0,0,0-4.69,4.64,20.6,20.6,0,0,0-1.32,2.66c-2.77,6.48-4.34,16.22-9.46,23.24-8.76,12.05-23,23.4-31.15,35.1-.32.44-.62.88-.92,1.33a12.1,12.1,0,0,1-.35,1.56c-.2.66-.25,1.44-.75,1.8-7.55,5.53.33,30.83-.47,31.44-2.87,2.2-10.36,3.31-13.17,1.17,0-1.84,1.65-34.05,1.56-35.7-.1-1.42-.19-2.74-.3-4,0-.62-.11-1.21-.16-1.78,0-.41-.09-.82-.13-1.2-.06-.58-.12-1.14-.18-1.66-.12-1-.24-1.88-.33-2.58.61-.9,1.44-2.68,2.53-3.38s2-2.34,3-3.08a59.31,59.31,0,0,1,6.43-5.53c3.42-3.27,6.62-5,9.72-8.6,2.63-3.1,5.19-6.22,7.75-9.21,4.37-5.11,8.45-10.37,12.43-15.79a37.69,37.69,0,0,1,6.78-7.42l0,0a18.32,18.32,0,0,1,3.3-2.08,15.16,15.16,0,0,1,2-.8,13.36,13.36,0,0,1,2.12-.5h0l.23,0A11.48,11.48,0,0,1,159.75,150.68Z"/><path class="cls-6" d="M110.71,103.4c-4,7.32-9,12.82-12.45,20.44-5.11,11.22-6.15,22.51-7.85,34.9-.15,1.17-1.45,2.14-2,2.94-.13-11-2-22.69,1.47-33.05C94.52,115.06,105.09,108.93,110.71,103.4Z"/><path class="cls-6" d="M348.42,15.8a21,21,0,0,1-1.25,7.12c-.71-1.19-2.18-2.19-2.12-3.57.23-5.17-2.92-7.78-10.05-8.41,2.3-.54,8.36-3.08,9.85-3.49a2.39,2.39,0,0,1,3,1.86A34.64,34.64,0,0,1,348.42,15.8Z"/><path class="cls-7" d="M111.8,97.39c-10.18,9-16.14,21.64-20,34.4a152.59,152.59,0,0,0-4.15,17.67c-.82,4.56-.71,10.2-2.41,14.52H93.9c-3.05-21.38,1.08-49.54,23.35-59.52,5.27-2.37.7-10.13-4.54-7.77-10.26,4.59-18.52,14.91-23.12,24.88-6.45,14-6.5,29.83-4.37,44.8.7,4.91,7.28,3.57,8.68,0,1.55-4,1.49-9.25,2.22-13.46a158.14,158.14,0,0,1,3.62-16.25c3.44-12.24,8.7-24.35,18.42-32.91C122.52,99.92,116.13,93.57,111.8,97.39Z"/><path d="M284.34,38c3.86,0,3.87-6,0-6s-3.87,6,0,6Z"/><path class="cls-7" d="M252.92,174l-4.82-3.87c-.13.45-.28-1-.46-.57l-.12.25c0-.08,0-.14,0-.22l-.49.07a30.18,30.18,0,0,1-6.89.21c-.58,0-1.13-.1-1.69-.17h0c-5.78-.78-11.28-3-16.76-5.84h0c-4.41-2.28-8.81-4.91-13.32-7.44a94.56,94.56,0,0,0-16.23-7.54c-1.43-.47-17.57-2.57-19.05-2.92,4.24-.52,11.33-3.71,15.37-2.62,29.61,8,50.77,8.22,51.7,8.2C248.59,151.29,252.53,171.72,252.92,174Z"/><path class="cls-7" d="M258.51,252.76l5.83.55c-3.18,0-11.24-1.23-14.44-1.74.24-16.17,1.24-93-11.43-100,0,0,37.56,1.13,51.25-31.63,5.82-13.94,7.58-26.83,7.12-42.78-.13-4.58,1.11-8.77,1.89-13.31,1-5.85,3.9-7.25,6.71-10.15a27.78,27.78,0,0,1,6.45-5l.47-.25c.32-.17.65-.34,1-.49a26.86,26.86,0,0,1,3.58-1.39,5.67,5.67,0,0,1,2.31-.24,3,3,0,0,1,.43.06,16.06,16.06,0,0,1-3.36,1.53,28.2,28.2,0,0,0-3.86,3,21.72,21.72,0,0,0-3.65,4.2,15,15,0,0,0-2.29,5.41c-1,5-.66,10.43-.17,16.57.86,10.55,2.26,23.16-1.28,39.18-3.72,16.7-44.21,45.66-52.13,57.81"/><path class="cls-7" d="M348.42,16.58a20,20,0,0,1-1.17,6.69h0C343.61,32.92,332.57,35.07,327,40.6h0a34.92,34.92,0,0,1-7.37,5.77,16.06,16.06,0,0,1-3.36,1.53,28.2,28.2,0,0,0-3.86,3,21.72,21.72,0,0,0-3.65,4.2,20,20,0,0,1-3.35-1.39,18.78,18.78,0,0,1-4.67-3.42h0a.26.26,0,0,1-.09-.09c-4-4-1.61-10.81,3.12-12.27a6.46,6.46,0,0,1,2.62-.24c.44,0,.89.19,1.37.28,3.76.68,7.28,1.21,10.92-1.48,2.87-2.12,8.33-5.95,14.68-7.74,4.5-1.27,12-5.88,11.88-8.79,0-.26.34-.36.52-.54C346.68,18.46,347.57,17.53,348.42,16.58Z"/><path class="cls-7" d="M312.36,48.43a4.71,4.71,0,0,1-.35.62,14.77,14.77,0,0,1,.43,1.8,21.72,21.72,0,0,0-3.65,4.2,15,15,0,0,0-2.29,5.41c-1,5-.66,10.43-.17,16.57-3.88,1.52-12,9.13-7.69-7.38.49-1.88.67-7.64,1-9.6.53-2.86,1-3.85,1.23-6.69.24-3.14-1.75-4.29-2.76-6.81A21.42,21.42,0,0,1,296.61,43c-1.15-5.49,5.92-6.69,10.92-5.15.2,0-3.34.13-3.13.2l.28.11h0L309,39.59l.45.17a5.41,5.41,0,0,1,.72.37h0a5.5,5.5,0,0,1,1.74,1.48A5.73,5.73,0,0,1,313,43.86c0,.11.05.21.07.31a6.71,6.71,0,0,1-.45,3.81C312.51,48.13,312.43,48.28,312.36,48.43Z"/><path class="cls-7" d="M271.46,51.29c1.09.68,2.28,1.51,3.47,2.37,4.85,3.56,9.89,8,9.89,8,4.38-1,9.36-6.31,3-16.39a28.2,28.2,0,0,1-1.49-2.67c-.61-1.24-2.18-8.69-1.7-12.69.6-5,1.74-3.42,2.68-3.42C279.14,38,292.62,42,295.85,51.67c2.9,8.66-2.6,17.81-13.63,19.74-23.94,4.19-17.48,9.85-42.55,17-6.29,1.78,8.46-6.44,18.2-16.62,7.14-7.46,11.4-19.34,11.44-19.65s2-.59,2.06-.86Z"/><path class="cls-7" d="M154.47,113.8c.24,5.53-1.18,10.3-2.69,15.69s-11.6,24.12-16.68,30.25c-3.75,4.52,8.62,4,11.79-1,11-17.3,94.91-6.29,87.55-7.39-54.79-8.2-72.15-33.13-73.18-39.52-.71-4.38-7-3.34-6.79,1Z"/><path class="cls-7" d="M303.32,252.5v15.26c0,16.66-62,30.17-138.61,30.17-75.67,0-137.18-13.19-138.59-29.59,0-.19,0-3.39,0-3.58V252.5c0,16.67,62.07,30.17,138.62,30.17S303.32,269.17,303.32,252.5Z"/><path class="cls-7" d="M298.82,252.5v9.11c0,1.73,0,3.45,0,5.18,0,1.24.1,1-.11,1.66-1,3.5-7.46,6.79-11.58,8.61-21,9.33-45.81,11.91-68.46,14a599.05,599.05,0,0,1-96.59.92c-24.61-1.73-50.15-4.4-73.6-12.52-5.62-1.95-14.35-4.92-17.36-10.08-.66-1.13-.43-.72-.51-1.9-.1-1.36,0-2.76,0-4.12V252.5h-9c.39,12.44,17.15,18,26.73,21.13,21.41,6.95,44.35,9.68,66.69,11.55a604.07,604.07,0,0,0,88.93.77c23.69-1.52,47.82-4.09,70.77-10.41,10.76-3,32.66-8.63,33.11-23,.19-5.79-8.81-5.78-9,0a4.81,4.81,0,0,1-1.22,2.6,18.82,18.82,0,0,1-5.08,4c-5.89,3.49-12.54,5.63-19.09,7.49-20.56,5.82-42.08,8.37-63.33,10a610.5,610.5,0,0,1-81,.65c-22.58-1.31-45.35-3.65-67.34-9.1C54,266.14,46,263.92,38.9,260.18a25.88,25.88,0,0,1-6.32-4.28,5.65,5.65,0,0,1-2-3.4c-.18-5.77-9-5.81-9,0s-1.17,13.15.54,18.7c1.88,6.09,8.14,10,13.51,12.66,21.35,10.51,46.94,13.35,70.28,15.73A590.69,590.69,0,0,0,211,300.71c25.64-2,53.07-4.64,77.14-14.36,6.73-2.72,14.86-6.35,18.36-13.19,3-5.82,1.35-14.39,1.35-20.66C307.82,246.71,298.82,246.7,298.82,252.5Z"/><path class="cls-7" d="M319.54,284v16.68c0,18.62-69.32,33.7-154.83,33.7S9.88,319.27,9.88,300.65V284c0,18.61,69.32,33.71,154.82,33.71S319.54,302.58,319.54,284Z"/><path class="cls-7" d="M315,284v10.25c0,2.37.21,6.11-.14,7.33s-2,3.26-3.83,4.68a44.07,44.07,0,0,1-9.37,5.28c-23.34,10.35-50.76,13.26-75.88,15.61a665.46,665.46,0,0,1-109.35,1.06c-27.53-2-56.2-4.94-82.39-14.18-6.21-2.2-16.22-5.59-19.26-11.66a4.34,4.34,0,0,1-.44-1.73c-.12-1.5,0-3.07,0-4.57V284h-9c.38,13.52,18.87,19.63,29.24,23,23.77,7.76,49.25,10.81,74.06,12.91a673.7,673.7,0,0,0,99.85.91c26.4-1.7,53.26-4.56,78.83-11.6C299.1,306,323.59,299.77,324,284c.16-5.79-8.84-5.78-9,0a6.14,6.14,0,0,1-1.29,3,21.08,21.08,0,0,1-6,4.74c-6.53,3.88-13.9,6.28-21.16,8.35-23.34,6.66-47.8,9.52-71.94,11.31a681.08,681.08,0,0,1-91.14.59c-25-1.49-50.18-4.14-74.5-10.23-8.67-2.17-17.52-4.67-25.44-8.9a27.51,27.51,0,0,1-7.21-5.06,7.52,7.52,0,0,1-1.69-2.32,5.56,5.56,0,0,1-.33-1.49c-.16-5.77-9-5.81-9,0,0,6.28-1.27,13.86.45,20,1.92,6.76,8.76,11.12,14.67,14.07,23.88,11.92,52.77,15.05,78.94,17.7a660.72,660.72,0,0,0,117,1.21c28.52-2.2,59-5.17,85.82-16,7.46-3,16.64-7.05,20.41-14.71,1.42-2.89,1.37-5.85,1.37-9V284C324,278.18,315,278.17,315,284Z"/><path class="cls-7" d="M172.2,146.39a29.49,29.49,0,0,0-12.45,4.29,14.82,14.82,0,0,0-4.69,4.63,21.26,21.26,0,0,0-1.32,2.66c-2.77,6.49-4.34,16.22-9.46,23.25-8.76,12.05-23,23.4-31.15,35.09-.32.44-.62.89-.92,1.34-.66,1-1.28,2.06-1.84,3.09a27.89,27.89,0,0,0-1.31,2.7,23.41,23.41,0,0,0-2.07,8.37c-.41,8.86,5.57,17.8,3.65,20.64-1.73,2.56-9.84,1.71-13.17,1.17a1.22,1.22,0,0,1-1-1.52c2.53-9.63,3-20.22,2.76-28.95,0-1.84-.13-3.59-.22-5.23-.1-1.42-.19-2.75-.3-4,0-.62-.11-1.21-.16-1.77s-.09-.82-.13-1.21q-.09-.87-.18-1.65c-.12-1-.24-1.88-.33-2.58-.18-1.34-.31-2.08-.31-2.08h0c.88-.7,1.73-1.36,2.57-2,1-.8,2.12-1.65,3.23-2.54a186.78,186.78,0,0,0,15.67-14.19,150.26,150.26,0,0,0,22.84-29.37l0,0c1.06-.72,2.6-1.69,4.6-2.78h0A63.3,63.3,0,0,1,154,150.3h0A60.94,60.94,0,0,1,172.2,146.39Z"/><path class="cls-7" d="M172.2,143.39c-8.64,1.09-17.32,4.7-21,13.07-3.93,8.8-5.17,18-11.37,25.74-6.39,8-14,14.85-20.9,22.37-6.21,6.78-12.82,14.59-14.49,23.91a28.62,28.62,0,0,0,.84,12.54c.54,2,1.25,4,1.87,6s1.42,3-.34,4c-1.35.73-4.27,0-5.77,0-1,0-1.75-.85-1.18.14a20.57,20.57,0,0,1,.73-3.46,109.77,109.77,0,0,0,1.71-16.47,144.78,144.78,0,0,0-.32-14.73q-.2-2.79-.49-5.58c-.14-1.32,0-5.1-.78-6.16l-.11-.71q-2,3.91-.15,2.15c1-.3,2.15-1.67,3-2.31,1.56-1.23,3.11-2.47,4.63-3.74q6.9-5.77,13.22-12.18a166.53,166.53,0,0,0,11.4-12.79c3.94-4.93,6.93-10.81,11-15.58,5.8-6.87,19.82-9.6,28.62-10.24,3.83-.28,3.86-6.28,0-6a66.6,66.6,0,0,0-28.55,8.51c-3.72,2.15-4.86,4.19-7.23,7.86a141.6,141.6,0,0,1-12.55,16.59,182.55,182.55,0,0,1-24.74,23.32c-2.55,2-4.49,2.72-4.36,6,.19,5.21,1.22,10.42,1.42,15.66A132.92,132.92,0,0,1,96,236.41a88.11,88.11,0,0,1-1.23,9.72c-.43,2.29-1.91,5.37-1,7.75,1.9,5,14.36,4.22,17.9,1.69,2.33-1.66,2.59-4.21,2.12-6.85-1-5.22-3.65-9.93-3.79-15.35-.31-11.7,10.17-21.58,17.68-29.35,8.23-8.52,18.11-17,22.93-28,2.09-4.8,3.31-9.89,5.11-14.8,2.66-7.31,9-10.84,16.5-11.79C176,148.92,176,142.91,172.2,143.39Z"/><polygon class="cls-7" points="69.54 204.6 54.9 253.86 66.29 254.68 70.04 230.79 91.54 207.13 95.32 135.76 83.3 192.73 69.54 204.6"/><polygon class="cls-7" points="264.34 253.31 268.17 246.23 264.05 210.06 271.39 161.68 286.06 147.36 286.06 138.35 256.61 158.58 250.72 165.17 250.28 186.66 250.28 242.8 264.34 253.31"/><path class="cls-7" d="M242.65,170.87a240.6,240.6,0,0,1,3.63,28.55,147,147,0,0,1,.13,23.83c-.61,6.73-2.94,13-4.33,19.53-1.16,5.47-3.06,13.17,4.32,14.33,5.67.88,14.63,2.29,20-.28a11.56,11.56,0,0,0,6.11-7.56c.81-3.59-1-5.38-2.86-8.06-3.09-4.41-3.33-10.42-3.32-15.61,0-9.49,1.61-18.94,3.48-28.21,2.1-10.42,4.33-21.19,8.82-30.88,7.52-16.23,23-27,29.3-44.1,3.44-9.38,4.12-20.23,3.91-30.15-.19-9.27-2.11-18.7-1.3-28a15.48,15.48,0,0,1,7-11.88c3-2,6.33-3.17,9.22-5.5,4.16-3.36,8.9-5.64,13.27-8.85,6.46-4.75,11.77-10.61,12.73-18.58.52-4.32.79-11.14-3.11-14-3.73-2.74-8.79-.22-12.78.66-5.46,1.2-10.37,1.88-15.83.5-4.81-1.22-9.61-2.54-14.63-2.27-7.27.38-15.14,3.26-20.47,8.37l3.18-1.32c-11.38.47-19.16,12.12-25.27,20.38-2.8,3.79-5.76,8.52-4.59,13.47.93,3.88,4.09,6.3,7.25,8.39,4.84,3.2,9.36-4.59,4.54-7.78-2.85-1.88-3.67-2.69-1.9-5.93,2.6-4.75,6.59-9.25,10.29-13.18,2.89-3.07,5.57-5.41,9.68-6.35,2.52-.57,3.75-2,5.9-3.31,8.62-5.29,16.44-3.32,25.6-1.31a33,33,0,0,0,12.09.23c2.2-.32,4.38-.73,6.55-1.21,1.05-.23,2.1-.48,3.14-.74s1.85-.46,2.78-.71l-1.32.31c-.1,2.27.14,4.29-.34,6.58a19,19,0,0,1-.71,3c.48-1.13.67-1.35-.32-.29-2.52,2.69-4.42,5.43-7.49,7.69-4.21,3.09-9,5-12.9,8.45-2.51,2.22-5.13,3.38-8,4.9a26.16,26.16,0,0,0-9.9,10c-4.36,8-2.67,18.23-2,26.87.76,9.48,1.11,19-.38,28.47-1.59,10-5.67,18.22-11.88,26.21-5.24,6.74-11.27,13-15.78,20.22-5.06,8.17-8,17.57-10.28,26.83-4.09,16.59-8.65,35.49-5.8,52.66a30.21,30.21,0,0,0,2.11,7.26,47.5,47.5,0,0,0,3.49,5.43c-.63,1.71-7.68.82-9.41.73s-3.63-.42-5.38-.37a11.16,11.16,0,0,0-1.78-.17q2.91,5,2.85,2.45a9.87,9.87,0,0,1,.08-1.22c1.46-3.23,1.52-7.83,2.52-11.32a74.25,74.25,0,0,0,2.35-10.2,128.69,128.69,0,0,0,.58-26,259.78,259.78,0,0,0-4.12-33.46c-1.11-5.68-9.79-3.28-8.68,2.39Z"/><path class="cls-7" d="M279.9,29.85a27.54,27.54,0,0,0,3.27,16.32c1.58,2.94,6,9.59.45,11.14L288,58.47a130.56,130.56,0,0,0-17.7-13c-2.25-1.39-6.17-.2-6.61,2.69C262.43,56.4,258,65.64,252,71.43,244.21,79,233.77,81.35,223.22,82c-26.4,1.57-52.54-2.59-78.88,1.84-19,3.21-34.81,11.39-44.52,28.64-8.59,15.25-11.91,32.85-14.16,50-1.81,13.88-2.66,26.85-13.48,37.06-3.42,3.22-7.74,5-11.21,8-3.15,2.7-2.39,6.76-2.52,10.46a67.08,67.08,0,0,1-7.87,29.75C45,258.41,60.07,260.92,67.49,259c9.1-2.33,3.47-17.75,5.77-24.33s8.18-12.31,13.22-17.09c10.68-10.14,23.18-17.78,34.35-27.26,8.84-7.5,16.73-17.37,23.1-27,1.8-2.73,1.09-3.15,3.65-4.93a35.83,35.83,0,0,1,7.68-3.78A56.84,56.84,0,0,1,174,150.82c15.32-.43,27.47,7,40.43,14.25a36.58,36.58,0,0,0,5,2.69,4.42,4.42,0,0,0,2.27.61c-1.18.25-.84.59,1,1a36.76,36.76,0,0,0,9.41,3.6A41.68,41.68,0,0,0,247,174.17c5.73-.46,5.78-9.46,0-9a34.54,34.54,0,0,1-12.53-.87,57.12,57.12,0,0,1-8.91-3.48,79.2,79.2,0,0,1-7.44-4c-10.45-5.89-21-12.36-33-14.26a64.05,64.05,0,0,0-34,4c-3.85,1.56-7.59,3.25-10.67,6.08-3.88,3.57-7.3,10.6-11,15.15-5.07,6.19-10.45,12.7-16.86,17.57-5.52,4.19-11.17,8.2-16.65,12.44-11.48,8.9-26.29,19.75-31.25,34.06-1.22,3.54-1.11,7.11-1.14,10.81,0,2.33-.75,5.67-.12,7.86l0,1.41q3.09-2,1-1.78c-1.09-.5-3.56-.06-4.8-.15,0,0-3-.32-3-.39l2.16,1.94.77-1.31c1.72-1.62,2.77-5.77,3.57-8a70.92,70.92,0,0,0,3.54-15.09,91.66,91.66,0,0,0,.86-11.93,6.93,6.93,0,0,1,0-1.44c.33-1.14-1.14.76,1-.5a53.65,53.65,0,0,0,6.56-4.55,47.57,47.57,0,0,0,17.51-30c3.11-18.32,3.93-36.6,11.18-54,3.46-8.32,8.35-16.37,15.52-22,7.43-5.83,16.61-8.37,25.76-10,14.86-2.69,30-2.7,45-2.23,13.4.42,27,1.48,40.33-.26,11.32-1.47,22.13-5.76,29.86-14.48,5.86-6.62,10.73-16.43,12.08-25.24l-6.62,2.69A109.78,109.78,0,0,1,279,62.58c3.89,3.26,6.76,4.74,11.41,1.29,4.18-3.08,5.56-8.18,4.57-13.15-.73-3.64-2.78-6.48-4.39-9.75a19.42,19.42,0,0,1-1.7-11.12c.69-5.73-8.32-5.68-9,0Z"/></g></svg>