<svg xmlns="http://www.w3.org/2000/svg" viewBox="0 0 360.69 344.11"><defs><style>.cls-1,.cls-4{fill:#6ea2ff;}.cls-1,.cls-3{stroke:#092c6b;stroke-miterlimit:10;}.cls-1{stroke-width:9px;}.cls-2{fill:#f4c076;}.cls-3{fill:none;stroke-width:3px;}.cls-5{fill:#3b3b3b;}.cls-6{fill:#454c56;}.cls-7{fill:#092c6b;}.cls-8{fill:#3a4ce8;}</style></defs><title>logo2</title><g id="blue"><ellipse class="cls-1" cx="165.9" cy="285.35" rx="154.83" ry="33.96"/><path class="cls-2" d="M285.49,36.8c0,.24.05.49.09.73l.24-.86,3.34-12.12C285.57,28.08,285,32.79,285.49,36.8Zm0,0c0,.24.05.49.09.73l.24-.86,3.34-12.12C285.57,28.08,285,32.79,285.49,36.8Z"/><path class="cls-2" d="M285.82,36.67l-.24.86c0-.24-.06-.49-.09-.73Z"/><path class="cls-1" d="M51.12,238c24.87-7.86,67-13,114.78-13,76.45,0,138.43,13.22,138.43,29.54S242.35,284,165.9,284,27.48,270.79,27.48,254.47c0-6.12,8.71-11.8,23.64-16.52"/><path class="cls-3" d="M269.11,234.78c21.9,5.23,35.22,12.13,35.22,19.69,0,16.32-62,29.55-138.43,29.55S27.48,270.79,27.48,254.47c0-6.12,8.71-11.8,23.64-16.52"/><path class="cls-4" d="M349.06,12.11a2.24,2.24,0,0,0-2.8-1.75c-1.4.38-3.33.89-5.5,1.4-5.1,1.19-11.48,2.37-15.14,1.83-6.78-1-12.6-4.33-21.47-2.68a28.7,28.7,0,0,0-13.9,6.65c-7.41-.2-15.16,9.83-21.89,18.82s-3.19,11.94,1.55,15v0l-.68-.42c-.09.26-.18,1.47-.27,1.74-3.23,9.24-6.25,21.63-21.24,29.83-21.07,11.52-58.06,1.31-95.6,6.39-18.86,2.56-28.16,6.6-35.93,13.23h0c-18.53,15.81-23,48.34-24.81,61.88-.09.58-.16,1.17-.23,1.76-1.34,10.77-1.63,21.29-8.11,30.89a49.23,49.23,0,0,1-17.68,15.6,2.23,2.23,0,0,0-1.17,2c.16,5.28,0,24.35-8.91,37.91a2.23,2.23,0,0,0,.83,3.22c1.23.58,7.49,1.05,11.4.81A1.64,1.64,0,0,0,69,254.8c0-.67.09-1.55.11-2.57.1-3.57.13-8.81.13-12.46,0-18.58,45.56-46.69,51-52.26,8-8.15,17.15-18,23.78-29.37l0,0c1.06-.71,1.66-1.69,3.65-2.77a.05.05,0,0,1,0,0,62.64,62.64,0,0,1,7.42-3.38h0a60.7,60.7,0,0,1,18.14-3.9h0a57.47,57.47,0,0,1,10.93.41,44.71,44.71,0,0,1,4.53.85h0c1.49.34,2.94.77,4.37,1.24a94.31,94.31,0,0,1,16.24,7.54c4.51,2.53,8.91,5.16,13.31,7.44h0c5.48,2.82,11,5.06,16.76,5.84h0c.57.07,1.12.13,1.69.17a30.17,30.17,0,0,0,6.89-.21l.49-.07.05.22c2.17,10.38,7.87,44.21,1.25,65.12a37.11,37.11,0,0,0-1.89,12.78,4.18,4.18,0,0,0,3,3.84,37.5,37.5,0,0,0,4.5,1,65.32,65.32,0,0,0,9.93.77s-3.36-30.23,1.88-60.85c2.22-12.94,5.9-24.85,11.79-34.36.22-.35.43-.7.67-1,7.92-12.15,22.66-24.15,26.37-40.85,3.54-16,2.14-28.63,1.29-39.18-.49-6.14-.8-11.57.17-16.57A14.85,14.85,0,0,1,310,56.68a22.12,22.12,0,0,1,3.66-4.2,28.12,28.12,0,0,1,3.85-2.95A15.32,15.32,0,0,0,320.86,48a35.43,35.43,0,0,0,7.37-5.77h0c5.53-5.53,16.58-7.68,20.21-17.32h0a19.69,19.69,0,0,0,1.18-6.69A31.92,31.92,0,0,0,349.06,12.11Z"/><path class="cls-5" d="M160.94,152.32a14.79,14.79,0,0,0-4.68,4.63,21.27,21.27,0,0,0-1.33,2.66c-2.77,6.49-4.34,16.22-9.45,23.24-8.76,12.05-23,23.41-31.16,35.1-.32.44-.62.88-.91,1.34a14.62,14.62,0,0,1-.36,1.56c-.2.65-.25,1.43-.74,1.79-7.56,5.53.33,30.83-.47,31.45-2.88,2.2-10.37,3.3-13.18,1.16,0-1.83,1.66-34.05,1.56-35.69q-.14-2.13-.3-4c0-.62-.1-1.21-.16-1.77s-.08-.82-.12-1.21c-.07-.58-.12-1.13-.19-1.65-.11-1-.23-1.88-.33-2.59.61-.9,1.45-2.67,2.53-3.38s2-2.33,3-3.07a57.54,57.54,0,0,1,6.43-5.54c3.42-3.27,6.61-5,9.72-8.6,2.63-3.09,5.18-6.21,7.74-9.2,4.37-5.11,8.45-10.38,12.44-15.79a37.73,37.73,0,0,1,6.77-7.43.05.05,0,0,1,0,0,17.6,17.6,0,0,1,3.3-2.07,14.26,14.26,0,0,1,2-.8,12.48,12.48,0,0,1,2.13-.51h0l.24,0A11.42,11.42,0,0,1,160.94,152.32Z"/><path class="cls-6" d="M111.91,105c-4,7.32-9,12.82-12.45,20.45-5.11,11.21-6.15,22.51-7.85,34.9-.16,1.16-1.45,2.13-2,2.93-.13-11-2-22.69,1.47-33.05C95.72,116.7,106.29,110.57,111.91,105Z"/><path class="cls-6" d="M349.62,17.43a21,21,0,0,1-1.25,7.12c-.71-1.19-2.18-2.18-2.12-3.57.22-5.17-2.93-7.78-10.05-8.41,2.3-.54,8.36-3.08,9.85-3.49a2.39,2.39,0,0,1,3,1.86A34.64,34.64,0,0,1,349.62,17.43Z"/><path class="cls-7" d="M113,99c-10.17,9-16.13,21.64-20,34.41a150.43,150.43,0,0,0-4.16,17.66c-.81,4.57-.71,10.2-2.4,14.52H95.1c-3-21.37,1.07-49.54,23.34-59.52,5.28-2.36.71-10.12-4.54-7.77-10.25,4.6-18.51,14.92-23.11,24.88-6.46,14-6.51,29.83-4.37,44.8.7,4.92,7.28,3.57,8.68,0,1.55-4,1.49-9.25,2.21-13.46a161.43,161.43,0,0,1,3.62-16.25c3.45-12.23,8.71-24.35,18.42-32.9C123.71,101.55,117.32,95.21,113,99Z"/><path d="M285.53,39.65c3.87,0,3.87-6,0-6s-3.86,6,0,6Z"/><path class="cls-8" d="M254.11,175.65l-4.82-3.87c-.12.45-.27-1-.46-.56l-.11.24c0-.07,0-.14-.05-.21l-.49.06a30.18,30.18,0,0,1-6.89.22c-.57-.05-1.12-.11-1.69-.18h0c-5.78-.77-11.28-3-16.76-5.84h0c-4.4-2.27-8.8-4.9-13.31-7.43a93.61,93.61,0,0,0-16.24-7.55c-1.43-.47-17.56-2.57-19.05-2.92,4.24-.51,11.33-3.71,15.37-2.62,29.61,8,50.78,8.23,51.7,8.2C249.79,152.93,253.72,173.36,254.11,175.65Z"/><path class="cls-8" d="M259.71,254.39l5.82.56c-3.17,0-11.24-1.24-14.43-1.75.23-16.16,1.24-93-11.44-100,0,0,37.57,1.14,51.25-31.63,5.82-13.94,7.59-26.83,7.13-42.77-.14-4.58,1.1-8.77,1.88-13.32,1-5.84,3.91-7.25,6.72-10.15A26,26,0,0,1,309.08,53a26.31,26.31,0,0,1,4-2.72l.47-.26c.32-.17.65-.33,1-.48a26.08,26.08,0,0,1,3.58-1.4,5.49,5.49,0,0,1,2.31-.23,3.11,3.11,0,0,1,.44.06,16,16,0,0,1-3.37,1.53,27.27,27.27,0,0,0-3.85,2.94,22.12,22.12,0,0,0-3.66,4.2,14.92,14.92,0,0,0-2.28,5.41c-1,5-.66,10.44-.17,16.58.85,10.54,2.25,23.15-1.29,39.17-3.71,16.7-44.21,45.67-52.13,57.81"/><path class="cls-8" d="M349.62,18.21a19.65,19.65,0,0,1-1.18,6.69h0c-3.63,9.65-14.68,11.8-20.21,17.32h0A35.9,35.9,0,0,1,320.86,48a16,16,0,0,1-3.37,1.53,27.27,27.27,0,0,0-3.85,2.94,22.12,22.12,0,0,0-3.66,4.2,20.3,20.3,0,0,1-3.34-1.39A18.72,18.72,0,0,1,302,51.88h0l-.09-.1c-4-4-1.61-10.81,3.12-12.26a6.31,6.31,0,0,1,2.62-.25c.45,0,.89.2,1.38.29,3.76.67,7.27,1.2,10.92-1.49,2.86-2.12,8.33-6,14.68-7.73,4.5-1.27,12-5.89,11.87-8.79,0-.26.35-.37.53-.55Q348.33,19.63,349.62,18.21Z"/><path class="cls-8" d="M313.55,50.06a3.38,3.38,0,0,1-.34.62,18.13,18.13,0,0,1,.43,1.8,22.12,22.12,0,0,0-3.66,4.2,14.92,14.92,0,0,0-2.28,5.41c-1,5-.66,10.44-.17,16.58-3.88,1.52-12,9.13-7.7-7.38.49-1.89.68-7.64,1-9.61.53-2.86,1-3.84,1.24-6.68.23-3.15-1.75-4.3-2.77-6.82a20.27,20.27,0,0,1-1.52-3.55c-1.15-5.49,5.91-6.69,10.92-5.14.2,0-3.34.12-3.14.2l.28.1h0c1.43.47,2.85,1,4.27,1.44l.45.17a4.5,4.5,0,0,1,.73.36h0a5.85,5.85,0,0,1,2.81,3.73c0,.1,0,.2.06.31a6.59,6.59,0,0,1-.44,3.8C313.7,49.76,313.63,49.91,313.55,50.06Z"/><path class="cls-8" d="M272.66,52.92c1.09.69,2.27,1.51,3.47,2.38,4.85,3.55,9.88,8,9.88,8,4.38-1,9.37-6.32,3.05-16.39-.58-.92-1.07-1.82-1.5-2.67-.6-1.25-2.17-8.69-1.69-12.69.59-5,1.73-3.43,2.67-3.43-8.2,11.48,5.27,15.51,8.51,25.2,2.89,8.66-2.6,17.81-13.64,19.74-23.93,4.18-17.47,9.85-42.55,17-6.28,1.78,8.46-6.44,18.21-16.63,7.13-7.46,11.4-19.33,11.44-19.65s2-.58,2.05-.86Z"/><path class="cls-8" d="M155.66,115.44c.25,5.52-1.17,10.29-2.69,15.68s-11.6,24.12-16.67,30.25c-3.75,4.52,8.61,4,11.79-1,11-17.31,94.9-6.3,87.55-7.4-54.8-8.19-72.16-33.13-73.19-39.51-.7-4.39-7-3.35-6.79,1Z"/><path class="cls-8" d="M304.52,254.14v15.25c0,16.67-62.06,30.17-138.61,30.17-75.67,0-137.18-13.19-138.59-29.59,0-.19,0-3.39,0-3.58V254.14c0,16.66,62.06,30.17,138.62,30.17S304.52,270.8,304.52,254.14Z"/><path class="cls-7" d="M300,254.14v9.11c0,1.72,0,3.45,0,5.17,0,1.25.09,1-.11,1.67-1.05,3.49-7.46,6.78-11.58,8.61-21,9.33-45.82,11.91-68.47,14a597.91,597.91,0,0,1-96.59.92c-24.6-1.73-50.15-4.39-73.59-12.51-5.63-2-14.36-4.93-17.36-10.08-.66-1.14-.44-.72-.52-1.91-.09-1.36,0-2.75,0-4.12V254.14h-9c.39,12.44,17.15,18,26.72,21.13,21.41,7,44.35,9.67,66.69,11.54a604.1,604.1,0,0,0,88.93.77c23.7-1.52,47.83-4.08,70.78-10.41,10.76-3,32.65-8.62,33.11-23,.18-5.8-8.82-5.79-9,0a4.84,4.84,0,0,1-1.22,2.6,19.18,19.18,0,0,1-5.08,4c-5.89,3.49-12.54,5.63-19.09,7.48-20.57,5.83-42.08,8.37-63.34,10a608.79,608.79,0,0,1-81,.65c-22.57-1.3-45.34-3.65-67.33-9.1-7.77-1.92-15.71-4.15-22.82-7.89a26.13,26.13,0,0,1-6.33-4.28c-1.39-1.37-2-2.55-2-3.39-.18-5.78-9-5.82-9,0s-1.17,13.14.54,18.7c1.88,6.08,8.14,10,13.51,12.65,21.34,10.51,46.93,13.35,70.27,15.73a589.76,589.76,0,0,0,105.05,1.12c25.65-2,53.08-4.64,77.15-14.36,6.73-2.71,14.86-6.35,18.35-13.18,3-5.82,1.36-14.4,1.36-20.66C309,248.35,300,248.34,300,254.14Z"/><path class="cls-8" d="M320.73,285.61v16.67c0,18.62-69.31,33.71-154.82,33.71S11.07,320.9,11.07,302.28V285.61c0,18.61,69.33,33.7,154.83,33.7S320.73,304.22,320.73,285.61Z"/><path class="cls-7" d="M316.23,285.61v10.24c0,2.38.22,6.12-.13,7.34s-2,3.26-3.84,4.68a43.37,43.37,0,0,1-9.37,5.27c-23.33,10.36-50.75,13.27-75.88,15.62a666.43,666.43,0,0,1-109.34,1.06c-27.53-2-56.2-4.94-82.39-14.19C29.06,313.44,19.06,310,16,304a4.35,4.35,0,0,1-.45-1.72c-.11-1.51,0-3.07,0-4.58V285.61h-9c.39,13.52,18.87,19.63,29.25,23,23.77,7.77,49.25,10.82,74.06,12.92a675.05,675.05,0,0,0,99.85.9c26.4-1.69,53.25-4.56,78.82-11.59,11.75-3.23,36.24-9.45,36.68-25.24.17-5.79-8.83-5.79-9,0a6,6,0,0,1-1.29,3,21.39,21.39,0,0,1-5.95,4.74c-6.54,3.87-13.9,6.27-21.17,8.34-23.34,6.66-47.8,9.53-71.94,11.31a682.75,682.75,0,0,1-91.14.6c-25-1.5-50.17-4.14-74.49-10.23-8.67-2.17-17.52-4.68-25.44-8.91a27.6,27.6,0,0,1-7.22-5.05,7.67,7.67,0,0,1-1.68-2.33,6.09,6.09,0,0,1-.34-1.48c-.16-5.78-9-5.81-9,0,0,6.27-1.27,13.86.46,20,1.91,6.76,8.75,11.13,14.66,14.07,23.89,11.92,52.77,15.05,78.94,17.7a659.78,659.78,0,0,0,117,1.21c28.53-2.2,59.05-5.17,85.83-16,7.46-3,16.64-7.05,20.41-14.7,1.42-2.9,1.36-5.85,1.36-9v-13.3C325.23,279.82,316.23,279.81,316.23,285.61Z"/><path class="cls-8" d="M173.39,148a29.37,29.37,0,0,0-12.45,4.28,14.71,14.71,0,0,0-4.68,4.64,21.27,21.27,0,0,0-1.33,2.66c-2.77,6.48-4.34,16.22-9.45,23.24-8.76,12.05-23,23.4-31.16,35.1-.32.44-.62.88-.91,1.33-.67,1-1.29,2.06-1.84,3.09s-.93,1.8-1.32,2.7a23.67,23.67,0,0,0-2.07,8.38c-.4,8.86,5.58,17.8,3.66,20.64-1.73,2.55-9.84,1.71-13.18,1.16a1.22,1.22,0,0,1-1-1.51c2.53-9.64,3-20.23,2.77-29,0-1.83-.13-3.58-.23-5.23-.09-1.42-.19-2.74-.3-4,0-.62-.1-1.21-.16-1.78,0-.41-.08-.82-.12-1.2-.07-.58-.12-1.14-.19-1.66-.11-1-.23-1.88-.33-2.58-.18-1.33-.31-2.08-.31-2.08h0c.89-.69,1.73-1.36,2.58-2,1-.8,2.11-1.64,3.22-2.54a185.06,185.06,0,0,0,15.68-14.19,151,151,0,0,0,22.84-29.37l0,0c1.06-.71,2.6-1.69,4.59-2.77a.05.05,0,0,1,0,0,62.64,62.64,0,0,1,7.42-3.38h0A60.7,60.7,0,0,1,173.39,148Z"/><path class="cls-7" d="M173.39,143.53c-6.08.76-12.25,2.57-17,6.6-4.51,3.8-6.3,9.25-8,14.69-2.06,6.51-4.11,12.54-8.43,18s-9.22,10.26-14,15.18C117,207,106,217.41,104,230.56c-.92,6,.66,11.66,2.46,17.31.29.89.47,2.72,1.06,3.48q.12,2.19,1-.33l-1,.23c-2.12-.65-5.42.91-7.45-.42l2.07,2.69c-.18-1.14,1.08-4.16,1.31-5.51.35-2.14.64-4.3.87-6.46a121.7,121.7,0,0,0,.63-14.41q-.08-6.24-.65-12.46c-.17-1.92-.39-3.83-.64-5.74-.1-.78-.39-4.87-.39-2.68L102,209.45c5.31-5.31,11.93-9.51,17.41-14.74a171.22,171.22,0,0,0,17.29-19.12c2.6-3.37,5.09-6.82,7.4-10.41,1.21-1.86,1.45-3.07,2.24-3.77a20.7,20.7,0,0,1,3.75-2.2,57.76,57.76,0,0,1,23.31-6.68c5.75-.42,5.79-9.42,0-9a68.11,68.11,0,0,0-29.3,8.71c-3.9,2.25-5.3,4.58-7.77,8.4A138.4,138.4,0,0,1,124,176.93a182.59,182.59,0,0,1-24.74,23.32c-3,2.36-5.07,3.42-4.75,7.46.41,5.1,1.18,10.13,1.38,15.27a132.93,132.93,0,0,1-.22,15.07,83.56,83.56,0,0,1-1.17,9.32c-.5,2.66-1.94,5.81-1,8.54,2.09,6.11,15.73,5.6,20.1,2.59,7.41-5.1-.73-16.85-.92-23.49-.34-11.23,10-20.86,17.24-28.3,8.32-8.61,18.26-17.16,23.16-28.34,2.15-4.92,3.41-10.12,5.26-15.15,2.42-6.62,8.23-9.84,15-10.69C179.06,151.81,179.14,142.8,173.39,143.53Z"/><polygon class="cls-8" points="70.74 206.23 56.09 255.5 67.48 256.31 71.24 232.42 92.73 208.76 96.51 137.39 84.49 194.37 70.74 206.23"/><polygon class="cls-8" points="265.53 254.94 269.37 247.87 265.25 211.69 272.58 163.31 287.25 148.99 287.25 139.98 257.81 160.21 251.92 166.81 251.48 188.3 251.48 244.44 265.53 254.94"/><path class="cls-7" d="M243.84,172.5a242.88,242.88,0,0,1,3.64,28.56,148,148,0,0,1,.12,23.82c-.6,6.74-2.93,13-4.32,19.53-1.16,5.47-3.07,13.18,4.32,14.33,5.67.89,14.62,2.29,20-.28a11.52,11.52,0,0,0,6.12-7.55c.81-3.6-1-5.39-2.86-8.06-3.1-4.42-3.34-10.43-3.33-15.62,0-9.49,1.61-18.93,3.48-28.21,2.11-10.41,4.34-21.19,8.83-30.88,7.51-16.23,23.05-27,29.3-44.1,3.43-9.38,4.12-20.23,3.91-30.14-.2-9.28-2.11-18.71-1.31-28a15.46,15.46,0,0,1,7-11.87c3-2,6.33-3.17,9.21-5.51,4.16-3.36,8.9-5.64,13.27-8.84,6.47-4.75,11.78-10.62,12.73-18.59.52-4.31.8-11.13-3.11-14C347.05,4.37,342,6.9,338,7.78c-5.46,1.19-10.37,1.87-15.82.49-4.81-1.21-9.62-2.54-14.63-2.27-7.27.39-15.14,3.27-20.48,8.38l3.18-1.32c-11.37.46-19.16,12.11-25.26,20.38-2.8,3.78-5.77,8.51-4.59,13.46.92,3.88,4.08,6.3,7.24,8.39,4.85,3.2,9.36-4.59,4.54-7.77-2.84-1.88-3.67-2.69-1.9-5.93,2.6-4.76,6.6-9.25,10.29-13.18,2.89-3.07,5.57-5.42,9.68-6.35,2.53-.58,3.76-2,5.9-3.32,8.63-5.29,16.44-3.31,25.6-1.31a32.6,32.6,0,0,0,12.1.23c2.19-.32,4.38-.73,6.54-1.21,1.05-.23,2.1-.47,3.14-.73l2.78-.71-1.31.3c-.11,2.28.13,4.29-.34,6.58a19.17,19.17,0,0,1-.72,3c.49-1.14.68-1.35-.31-.3-2.52,2.69-4.43,5.44-7.49,7.69-4.21,3.1-9,5-12.9,8.45-2.51,2.22-5.14,3.39-8,4.91a26,26,0,0,0-9.89,10c-4.37,8-2.68,18.23-2,26.87.77,9.48,1.12,19-.38,28.47-1.59,10-5.67,18.23-11.88,26.22-5.23,6.74-11.26,12.94-15.78,20.22-5.06,8.16-8,17.57-10.27,26.83-4.1,16.58-8.66,35.48-5.8,52.65a29.71,29.71,0,0,0,2.11,7.27,44.61,44.61,0,0,0,3.49,5.42c-.64,1.72-7.68.82-9.41.74s-3.63-.43-5.38-.38a11.26,11.26,0,0,0-1.78-.17c1.94,3.31,2.89,4.12,2.84,2.46,0-.41,0-.82.08-1.23,1.46-3.23,1.53-7.83,2.53-11.32a72.46,72.46,0,0,0,2.34-10.2,129.35,129.35,0,0,0,.59-25.95,259.73,259.73,0,0,0-4.13-33.47c-1.1-5.68-9.78-3.27-8.68,2.39Z"/><path class="cls-7" d="M281.1,31.49a27.5,27.5,0,0,0,3.27,16.31c1.57,3,6,9.59.45,11.15l4.38,1.15a131.28,131.28,0,0,0-17.71-13c-2.25-1.39-6.17-.19-6.61,2.69-1.25,8.23-5.69,17.47-11.66,23.25C245.4,80.65,235,83,224.42,83.61,198,85.18,171.87,81,145.54,85.45c-19.06,3.2-34.81,11.38-44.53,28.63-8.59,15.25-11.91,32.85-14.15,50C85,178,84.19,191,73.37,201.16c-3.41,3.22-7.73,5-11.21,8-3.14,2.7-2.39,6.77-2.52,10.46a67.15,67.15,0,0,1-7.86,29.76c-5.62,10.68,9.49,13.18,16.9,11.28,9.1-2.33,3.48-17.75,5.77-24.32,2.35-6.73,8.18-12.32,13.22-17.1C98.35,209.09,110.86,201.45,122,192c8.83-7.49,16.72-17.36,23.09-27,1.81-2.73,1.09-3.15,3.66-4.93a35.94,35.94,0,0,1,7.67-3.77,56.85,56.85,0,0,1,18.71-3.82c15.33-.42,27.47,7,40.43,14.26a37.75,37.75,0,0,0,5,2.68,4.43,4.43,0,0,0,2.27.62c-1.18.25-.84.58,1,1,2.72,1.71,6.36,2.76,9.41,3.61a42.14,42.14,0,0,0,14.92,1.19c5.74-.47,5.79-9.47,0-9a34.79,34.79,0,0,1-12.53-.87,57.06,57.06,0,0,1-8.9-3.49,77.08,77.08,0,0,1-7.45-4c-10.44-5.89-21-12.35-33-14.25a63.93,63.93,0,0,0-34,4.05c-3.86,1.56-7.59,3.24-10.68,6.08-3.88,3.56-7.3,10.6-11,15.14-5.06,6.2-10.45,12.71-16.85,17.57-5.52,4.19-11.18,8.2-16.66,12.45-11.47,8.89-26.29,19.74-31.24,34.06-1.23,3.53-1.12,7.1-1.14,10.81,0,2.32-.76,5.66-.12,7.85l0,1.42q3.09-2,1-1.78c-1.09-.5-3.56-.06-4.8-.16,0,0-3-.32-3-.38L60,253.27l.76-1.32c1.73-1.62,2.77-5.77,3.58-8a71.65,71.65,0,0,0,3.53-15.09A93.48,93.48,0,0,0,68.7,217a6.9,6.9,0,0,1,0-1.44c.34-1.13-1.13.76,1-.5a54.59,54.59,0,0,0,6.55-4.54,47.55,47.55,0,0,0,17.51-30c3.12-18.32,3.94-36.61,11.18-54,3.47-8.32,8.36-16.36,15.52-22,7.43-5.84,16.62-8.37,25.77-10,14.86-2.7,30-2.7,45-2.23,13.41.42,27,1.48,40.34-.26,11.32-1.48,22.13-5.76,29.85-14.48,5.87-6.63,10.73-16.44,12.08-25.25L267,54.89a110.54,110.54,0,0,1,13.25,9.33c3.89,3.26,6.76,4.73,11.42,1.29,4.17-3.09,5.56-8.18,4.56-13.15-.73-3.65-2.78-6.49-4.39-9.75a19.35,19.35,0,0,1-1.69-11.12c.68-5.74-8.32-5.69-9,0Z"/></g></svg>