<svg xmlns="http://www.w3.org/2000/svg" viewBox="0 0 345 345"><defs><style>.cls-1{fill:#eff4f4;}.cls-2{fill:#f2d557;}.cls-3{fill:none;stroke:#092c6b;stroke-miterlimit:10;stroke-width:3px;}</style></defs><title>savings</title><g id="shadows"><path class="cls-1" d="M108.24,294.8c0,13.37-20,24.2-44.7,24.2-16.41,0-30.75-4.78-38.52-11.9a13.85,13.85,0,0,1-1.27-5.73c0-13.37,20-24.2,44.7-24.2,16.41,0,30.75,4.78,38.53,11.91A13.76,13.76,0,0,1,108.24,294.8Z"/><path class="cls-1" d="M108.24,277.05c0,13.37-20,24.2-44.7,24.2-16.41,0-30.75-4.78-38.52-11.91a13.77,13.77,0,0,1-1.27-5.72c0-13.37,20-24.2,44.7-24.2,16.41,0,30.75,4.78,38.53,11.9A13.8,13.8,0,0,1,108.24,277.05Z"/><path class="cls-1" d="M108.24,259.3c0,13.37-20,24.2-44.7,24.2-16.41,0-30.75-4.79-38.52-11.91a13.77,13.77,0,0,1-1.27-5.72c0-13.37,20-24.2,44.7-24.2,16.41,0,30.75,4.78,38.53,11.9A13.77,13.77,0,0,1,108.24,259.3Z"/><path class="cls-1" d="M219.19,294.8c0,13.37-20,24.2-44.7,24.2-16.41,0-30.74-4.78-38.52-11.9a13.85,13.85,0,0,1-1.27-5.73c0-13.37,20-24.2,44.7-24.2,16.41,0,30.75,4.78,38.53,11.91A13.76,13.76,0,0,1,219.19,294.8Z"/><path class="cls-1" d="M219.19,277.05c0,13.37-20,24.2-44.7,24.2-16.41,0-30.74-4.78-38.52-11.91a13.77,13.77,0,0,1-1.27-5.72c0-13.37,20-24.2,44.7-24.2,16.41,0,30.75,4.78,38.53,11.9A13.8,13.8,0,0,1,219.19,277.05Z"/><path class="cls-1" d="M219.19,259.3c0,13.37-20,24.2-44.7,24.2-16.41,0-30.74-4.79-38.52-11.91a13.77,13.77,0,0,1-1.27-5.72c0-13.37,20-24.2,44.7-24.2,16.41,0,30.75,4.78,38.53,11.9A13.77,13.77,0,0,1,219.19,259.3Z"/><path class="cls-1" d="M219.19,241.55c0,13.37-20,24.19-44.7,24.19-16.41,0-30.74-4.78-38.52-11.9a13.78,13.78,0,0,1-1.27-5.73c0-13.37,20-24.19,44.7-24.19,16.41,0,30.75,4.78,38.53,11.9A13.77,13.77,0,0,1,219.19,241.55Z"/><path class="cls-1" d="M219.19,223.79c0,13.37-20,24.2-44.7,24.2-16.41,0-30.74-4.78-38.52-11.9a13.78,13.78,0,0,1-1.27-5.73c0-13.37,20-24.2,44.7-24.2,16.41,0,30.75,4.79,38.53,11.91A13.76,13.76,0,0,1,219.19,223.79Z"/><path class="cls-1" d="M219.19,206c0,13.37-20,24.2-44.7,24.2-16.41,0-30.74-4.78-38.52-11.91a13.77,13.77,0,0,1-1.27-5.72c0-13.37,20-24.2,44.7-24.2,16.41,0,30.75,4.78,38.53,11.91A13.76,13.76,0,0,1,219.19,206Z"/><path class="cls-1" d="M330.14,294.8c0,13.37-20,24.2-44.7,24.2-16.41,0-30.74-4.78-38.52-11.9a13.85,13.85,0,0,1-1.27-5.73c0-13.37,20-24.2,44.7-24.2,16.41,0,30.75,4.78,38.53,11.91A13.76,13.76,0,0,1,330.14,294.8Z"/><path class="cls-1" d="M330.14,277.05c0,13.37-20,24.2-44.7,24.2-16.41,0-30.74-4.78-38.52-11.91a13.77,13.77,0,0,1-1.27-5.72c0-13.37,20-24.2,44.7-24.2,16.41,0,30.75,4.78,38.53,11.9A13.8,13.8,0,0,1,330.14,277.05Z"/><path class="cls-1" d="M330.14,259.3c0,13.37-20,24.2-44.7,24.2-16.41,0-30.74-4.79-38.52-11.91a13.77,13.77,0,0,1-1.27-5.72c0-13.37,20-24.2,44.7-24.2,16.41,0,30.75,4.78,38.53,11.9A13.77,13.77,0,0,1,330.14,259.3Z"/><path class="cls-1" d="M330.14,241.55c0,13.37-20,24.19-44.7,24.19-16.41,0-30.74-4.78-38.52-11.9a13.78,13.78,0,0,1-1.27-5.73c0-13.37,20-24.19,44.7-24.19,16.41,0,30.75,4.78,38.53,11.9A13.77,13.77,0,0,1,330.14,241.55Z"/><path class="cls-1" d="M330.14,223.79c0,13.37-20,24.2-44.7,24.2-16.41,0-30.74-4.78-38.52-11.9a13.78,13.78,0,0,1-1.27-5.73c0-13.37,20-24.2,44.7-24.2,16.41,0,30.75,4.79,38.53,11.91A13.76,13.76,0,0,1,330.14,223.79Z"/><path class="cls-1" d="M330.14,206c0,13.37-20,24.2-44.7,24.2-16.41,0-30.74-4.78-38.52-11.91a13.77,13.77,0,0,1-1.27-5.72c0-13.37,20-24.2,44.7-24.2,16.41,0,30.75,4.78,38.53,11.91A13.76,13.76,0,0,1,330.14,206Z"/><path class="cls-1" d="M330.14,189.4c0,13.37-20,24.2-44.7,24.2-16.41,0-30.74-4.78-38.52-11.91a13.77,13.77,0,0,1-1.27-5.72c0-13.37,20-24.2,44.7-24.2,16.41,0,30.75,4.78,38.53,11.9A13.77,13.77,0,0,1,330.14,189.4Z"/><path class="cls-1" d="M330.14,171.65c0,13.37-20,24.2-44.7,24.2-16.41,0-30.74-4.79-38.52-11.91a13.77,13.77,0,0,1-1.27-5.72c0-13.37,20-24.2,44.7-24.2,16.41,0,30.75,4.78,38.53,11.9A13.77,13.77,0,0,1,330.14,171.65Z"/><path class="cls-1" d="M330.14,153.89c0,13.37-20,24.2-44.7,24.2-16.41,0-30.74-4.78-38.52-11.9a13.78,13.78,0,0,1-1.27-5.73c0-13.37,20-24.2,44.7-24.2,16.41,0,30.75,4.79,38.53,11.91A13.76,13.76,0,0,1,330.14,153.89Z"/><path class="cls-1" d="M330.14,136.14c0,13.37-20,24.2-44.7,24.2-16.41,0-30.74-4.78-38.52-11.9a13.78,13.78,0,0,1-1.27-5.73c0-13.37,20-24.2,44.7-24.2,16.41,0,30.75,4.78,38.53,11.91A13.76,13.76,0,0,1,330.14,136.14Z"/><path class="cls-1" d="M330.14,118.39c0,13.37-20,24.2-44.7,24.2-16.41,0-30.74-4.78-38.52-11.91a13.77,13.77,0,0,1-1.27-5.72c0-13.37,20-24.2,44.7-24.2,16.41,0,30.75,4.78,38.53,11.91A13.76,13.76,0,0,1,330.14,118.39Z"/><path class="cls-1" d="M330.14,101.75c0,13.37-20,24.2-44.7,24.2C269,126,254.7,121.16,246.92,114a13.77,13.77,0,0,1-1.27-5.72c0-13.37,20-24.2,44.7-24.2,16.41,0,30.75,4.78,38.53,11.9A13.77,13.77,0,0,1,330.14,101.75Z"/><path class="cls-1" d="M330.14,84c0,13.37-20,24.19-44.7,24.19-16.41,0-30.74-4.78-38.52-11.9a13.78,13.78,0,0,1-1.27-5.73c0-13.37,20-24.19,44.7-24.19,16.41,0,30.75,4.78,38.53,11.9A13.77,13.77,0,0,1,330.14,84Z"/></g><g id="Layer_1" data-name="Layer 1"><path class="cls-2" d="M102.69,289.25c0,13.37-20,24.2-44.7,24.2-16.41,0-30.74-4.78-38.52-11.9a13.78,13.78,0,0,1-1.27-5.73c0-13.37,20-24.2,44.71-24.2,16.41,0,30.74,4.79,38.52,11.91A13.76,13.76,0,0,1,102.69,289.25Z"/><path class="cls-3" d="M103.8,290.36c0,13.37-20,24.2-44.7,24.2-16.41,0-30.74-4.78-38.52-11.9-3.94-3.61-6.19-7.81-6.19-12.3,0-13.35,20-24.19,44.71-24.19,21,0,38.69,7.87,43.44,18.47A13.76,13.76,0,0,1,103.8,290.36Z"/><path class="cls-2" d="M102.69,271.5c0,13.37-20,24.2-44.7,24.2-16.41,0-30.74-4.78-38.52-11.9a13.82,13.82,0,0,1-1.27-5.73c0-13.37,20-24.2,44.71-24.2,16.41,0,30.74,4.78,38.52,11.91A13.76,13.76,0,0,1,102.69,271.5Z"/><path class="cls-3" d="M103.8,272.61c0,13.37-20,24.2-44.7,24.2-16.41,0-30.74-4.78-38.52-11.9-3.94-3.61-6.19-7.82-6.19-12.3,0-13.36,20-24.2,44.71-24.2,21,0,38.69,7.88,43.44,18.48A13.76,13.76,0,0,1,103.8,272.61Z"/><path class="cls-2" d="M102.69,253.75c0,13.37-20,24.2-44.7,24.2-16.41,0-30.74-4.78-38.52-11.91a13.77,13.77,0,0,1-1.27-5.72c0-13.37,20-24.2,44.71-24.2,16.41,0,30.74,4.78,38.52,11.91A13.76,13.76,0,0,1,102.69,253.75Z"/><path class="cls-3" d="M103.8,254.86c0,13.37-20,24.2-44.7,24.2-16.41,0-30.74-4.78-38.52-11.91-3.94-3.6-6.19-7.81-6.19-12.29,0-13.36,20-24.2,44.71-24.2,21,0,38.69,7.88,43.44,18.47A13.8,13.8,0,0,1,103.8,254.86Z"/><path class="cls-2" d="M213.64,289.25c0,13.37-20,24.2-44.7,24.2-16.41,0-30.74-4.78-38.52-11.9a13.77,13.77,0,0,1-1.26-5.73c0-13.37,20-24.2,44.7-24.2,16.41,0,30.74,4.79,38.52,11.91A13.76,13.76,0,0,1,213.64,289.25Z"/><path class="cls-3" d="M214.75,290.36c0,13.37-20,24.2-44.7,24.2-16.41,0-30.74-4.78-38.52-11.9-3.94-3.61-6.19-7.81-6.19-12.3,0-13.35,20-24.19,44.71-24.19,21,0,38.69,7.87,43.44,18.47A13.76,13.76,0,0,1,214.75,290.36Z"/><path class="cls-2" d="M213.64,271.5c0,13.37-20,24.2-44.7,24.2-16.41,0-30.74-4.78-38.52-11.9a13.8,13.8,0,0,1-1.26-5.73c0-13.37,20-24.2,44.7-24.2,16.41,0,30.74,4.78,38.52,11.91A13.76,13.76,0,0,1,213.64,271.5Z"/><path class="cls-3" d="M214.75,272.61c0,13.37-20,24.2-44.7,24.2-16.41,0-30.74-4.78-38.52-11.9-3.94-3.61-6.19-7.82-6.19-12.3,0-13.36,20-24.2,44.71-24.2,21,0,38.69,7.88,43.44,18.48A13.76,13.76,0,0,1,214.75,272.61Z"/><path class="cls-2" d="M213.64,253.75c0,13.37-20,24.2-44.7,24.2-16.41,0-30.74-4.78-38.52-11.91a13.76,13.76,0,0,1-1.26-5.72c0-13.37,20-24.2,44.7-24.2,16.41,0,30.74,4.78,38.52,11.91A13.76,13.76,0,0,1,213.64,253.75Z"/><path class="cls-3" d="M214.75,254.86c0,13.37-20,24.2-44.7,24.2-16.41,0-30.74-4.78-38.52-11.91-3.94-3.6-6.19-7.81-6.19-12.29,0-13.36,20-24.2,44.71-24.2,21,0,38.69,7.88,43.44,18.47A13.8,13.8,0,0,1,214.75,254.86Z"/><path class="cls-2" d="M213.64,236c0,13.37-20,24.2-44.7,24.2-16.41,0-30.74-4.79-38.52-11.91a13.76,13.76,0,0,1-1.26-5.72c0-13.37,20-24.2,44.7-24.2,16.41,0,30.74,4.78,38.52,11.9A13.77,13.77,0,0,1,213.64,236Z"/><path class="cls-3" d="M214.75,237.11c0,13.37-20,24.2-44.7,24.2-16.41,0-30.74-4.79-38.52-11.91-3.94-3.6-6.19-7.81-6.19-12.29,0-13.36,20-24.2,44.71-24.2,21,0,38.69,7.88,43.44,18.47A13.77,13.77,0,0,1,214.75,237.11Z"/><path class="cls-2" d="M213.64,218.25c0,13.37-20,24.19-44.7,24.19-16.41,0-30.74-4.78-38.52-11.9a13.77,13.77,0,0,1-1.26-5.73c0-13.37,20-24.19,44.7-24.19,16.41,0,30.74,4.78,38.52,11.9A13.77,13.77,0,0,1,213.64,218.25Z"/><path class="cls-3" d="M214.75,219.36c0,13.37-20,24.19-44.7,24.19-16.41,0-30.74-4.78-38.52-11.9-3.94-3.61-6.19-7.81-6.19-12.29,0-13.36,20-24.2,44.71-24.2,21,0,38.69,7.87,43.44,18.47A13.77,13.77,0,0,1,214.75,219.36Z"/><path class="cls-2" d="M213.64,200.49c0,13.37-20,24.2-44.7,24.2-16.41,0-30.74-4.78-38.52-11.9a13.77,13.77,0,0,1-1.26-5.73c0-13.37,20-24.2,44.7-24.2,16.41,0,30.74,4.79,38.52,11.91A13.76,13.76,0,0,1,213.64,200.49Z"/><path class="cls-3" d="M214.75,201.6c0,13.37-20,24.2-44.7,24.2-16.41,0-30.74-4.78-38.52-11.9-3.94-3.61-6.19-7.81-6.19-12.3,0-13.35,20-24.19,44.71-24.19,21,0,38.69,7.87,43.44,18.47A13.76,13.76,0,0,1,214.75,201.6Z"/><path class="cls-2" d="M324.59,289.25c0,13.37-20,24.2-44.7,24.2-16.41,0-30.74-4.78-38.52-11.9a13.77,13.77,0,0,1-1.26-5.73c0-13.37,20-24.2,44.7-24.2,16.41,0,30.74,4.79,38.52,11.91A13.76,13.76,0,0,1,324.59,289.25Z"/><path class="cls-3" d="M325.7,290.36c0,13.37-20,24.2-44.7,24.2-16.41,0-30.74-4.78-38.52-11.9-3.94-3.61-6.19-7.81-6.19-12.3,0-13.35,20-24.19,44.71-24.19,21,0,38.69,7.87,43.44,18.47A13.76,13.76,0,0,1,325.7,290.36Z"/><path class="cls-2" d="M324.59,271.5c0,13.37-20,24.2-44.7,24.2-16.41,0-30.74-4.78-38.52-11.9a13.8,13.8,0,0,1-1.26-5.73c0-13.37,20-24.2,44.7-24.2,16.41,0,30.74,4.78,38.52,11.91A13.76,13.76,0,0,1,324.59,271.5Z"/><path class="cls-3" d="M325.7,272.61c0,13.37-20,24.2-44.7,24.2-16.41,0-30.74-4.78-38.52-11.9-3.94-3.61-6.19-7.82-6.19-12.3,0-13.36,20-24.2,44.71-24.2,21,0,38.69,7.88,43.44,18.48A13.76,13.76,0,0,1,325.7,272.61Z"/><path class="cls-2" d="M324.59,253.75c0,13.37-20,24.2-44.7,24.2-16.41,0-30.74-4.78-38.52-11.91a13.76,13.76,0,0,1-1.26-5.72c0-13.37,20-24.2,44.7-24.2,16.41,0,30.74,4.78,38.52,11.91A13.76,13.76,0,0,1,324.59,253.75Z"/><path class="cls-3" d="M325.7,254.86c0,13.37-20,24.2-44.7,24.2-16.41,0-30.74-4.78-38.52-11.91-3.94-3.6-6.19-7.81-6.19-12.29,0-13.36,20-24.2,44.71-24.2,21,0,38.69,7.88,43.44,18.47A13.8,13.8,0,0,1,325.7,254.86Z"/><path class="cls-2" d="M324.59,236c0,13.37-20,24.2-44.7,24.2-16.41,0-30.74-4.79-38.52-11.91a13.76,13.76,0,0,1-1.26-5.72c0-13.37,20-24.2,44.7-24.2,16.41,0,30.74,4.78,38.52,11.9A13.77,13.77,0,0,1,324.59,236Z"/><path class="cls-3" d="M325.7,237.11c0,13.37-20,24.2-44.7,24.2-16.41,0-30.74-4.79-38.52-11.91-3.94-3.6-6.19-7.81-6.19-12.29,0-13.36,20-24.2,44.71-24.2,21,0,38.69,7.88,43.44,18.47A13.77,13.77,0,0,1,325.7,237.11Z"/><path class="cls-2" d="M324.59,218.25c0,13.37-20,24.19-44.7,24.19-16.41,0-30.74-4.78-38.52-11.9a13.77,13.77,0,0,1-1.26-5.73c0-13.37,20-24.19,44.7-24.19,16.41,0,30.74,4.78,38.52,11.9A13.77,13.77,0,0,1,324.59,218.25Z"/><path class="cls-3" d="M325.7,219.36c0,13.37-20,24.19-44.7,24.19-16.41,0-30.74-4.78-38.52-11.9-3.94-3.61-6.19-7.81-6.19-12.29,0-13.36,20-24.2,44.71-24.2,21,0,38.69,7.87,43.44,18.47A13.77,13.77,0,0,1,325.7,219.36Z"/><path class="cls-2" d="M324.59,200.49c0,13.37-20,24.2-44.7,24.2-16.41,0-30.74-4.78-38.52-11.9a13.77,13.77,0,0,1-1.26-5.73c0-13.37,20-24.2,44.7-24.2,16.41,0,30.74,4.79,38.52,11.91A13.76,13.76,0,0,1,324.59,200.49Z"/><path class="cls-3" d="M325.7,201.6c0,13.37-20,24.2-44.7,24.2-16.41,0-30.74-4.78-38.52-11.9-3.94-3.61-6.19-7.81-6.19-12.3,0-13.35,20-24.19,44.71-24.19,21,0,38.69,7.87,43.44,18.47A13.76,13.76,0,0,1,325.7,201.6Z"/><path class="cls-2" d="M324.59,183.85c0,13.37-20,24.2-44.7,24.2-16.41,0-30.74-4.78-38.52-11.91a13.76,13.76,0,0,1-1.26-5.72c0-13.37,20-24.2,44.7-24.2,16.41,0,30.74,4.78,38.52,11.91A13.76,13.76,0,0,1,324.59,183.85Z"/><path class="cls-3" d="M325.7,185c0,13.37-20,24.2-44.7,24.2-16.41,0-30.74-4.78-38.52-11.91-3.94-3.6-6.19-7.81-6.19-12.29,0-13.36,20-24.2,44.71-24.2,21,0,38.69,7.88,43.44,18.48A13.76,13.76,0,0,1,325.7,185Z"/><path class="cls-2" d="M324.59,166.1c0,13.37-20,24.2-44.7,24.2-16.41,0-30.74-4.78-38.52-11.91a13.76,13.76,0,0,1-1.26-5.72c0-13.37,20-24.2,44.7-24.2,16.41,0,30.74,4.78,38.52,11.9A13.8,13.8,0,0,1,324.59,166.1Z"/><path class="cls-3" d="M325.7,167.21c0,13.37-20,24.2-44.7,24.2-16.41,0-30.74-4.78-38.52-11.91-3.94-3.6-6.19-7.81-6.19-12.29,0-13.36,20-24.2,44.71-24.2,21,0,38.69,7.88,43.44,18.47A13.77,13.77,0,0,1,325.7,167.21Z"/><path class="cls-2" d="M324.59,148.35c0,13.37-20,24.2-44.7,24.2-16.41,0-30.74-4.79-38.52-11.91a13.76,13.76,0,0,1-1.26-5.72c0-13.37,20-24.2,44.7-24.2,16.41,0,30.74,4.78,38.52,11.9A13.77,13.77,0,0,1,324.59,148.35Z"/><path class="cls-3" d="M325.7,149.46c0,13.37-20,24.2-44.7,24.2-16.41,0-30.74-4.79-38.52-11.91-3.94-3.61-6.19-7.81-6.19-12.29,0-13.36,20-24.2,44.71-24.2,21,0,38.69,7.88,43.44,18.47A13.77,13.77,0,0,1,325.7,149.46Z"/><path class="cls-2" d="M324.59,130.6c0,13.36-20,24.19-44.7,24.19-16.41,0-30.74-4.78-38.52-11.9a13.77,13.77,0,0,1-1.26-5.73c0-13.37,20-24.19,44.7-24.19,16.41,0,30.74,4.78,38.52,11.9A13.77,13.77,0,0,1,324.59,130.6Z"/><path class="cls-3" d="M325.7,131.7c0,13.37-20,24.2-44.7,24.2-16.41,0-30.74-4.78-38.52-11.9-3.94-3.61-6.19-7.81-6.19-12.3,0-13.35,20-24.19,44.71-24.19,21,0,38.69,7.87,43.44,18.47A13.76,13.76,0,0,1,325.7,131.7Z"/><path class="cls-2" d="M324.59,112.84c0,13.37-20,24.2-44.7,24.2-16.41,0-30.74-4.78-38.52-11.9a13.77,13.77,0,0,1-1.26-5.73c0-13.37,20-24.2,44.7-24.2,16.41,0,30.74,4.79,38.52,11.91A13.76,13.76,0,0,1,324.59,112.84Z"/><path class="cls-3" d="M325.7,114c0,13.37-20,24.2-44.7,24.2-16.41,0-30.74-4.78-38.52-11.9-3.94-3.61-6.19-7.81-6.19-12.3,0-13.36,20-24.2,44.71-24.2,21,0,38.69,7.88,43.44,18.48A13.76,13.76,0,0,1,325.7,114Z"/><path class="cls-2" d="M324.59,96.2c0,13.37-20,24.2-44.7,24.2-16.41,0-30.74-4.78-38.52-11.91a13.76,13.76,0,0,1-1.26-5.72c0-13.37,20-24.2,44.7-24.2,16.41,0,30.74,4.78,38.52,11.91A13.76,13.76,0,0,1,324.59,96.2Z"/><path class="cls-3" d="M325.7,97.31c0,13.37-20,24.2-44.7,24.2-16.41,0-30.74-4.78-38.52-11.91-3.94-3.6-6.19-7.81-6.19-12.29,0-13.36,20-24.2,44.71-24.2,21,0,38.69,7.88,43.44,18.48A13.76,13.76,0,0,1,325.7,97.31Z"/><path class="cls-2" d="M324.59,78.45c0,13.37-20,24.2-44.7,24.2-16.41,0-30.74-4.78-38.52-11.91A13.76,13.76,0,0,1,240.11,85c0-13.37,20-24.2,44.7-24.2,16.41,0,30.74,4.78,38.52,11.9A13.77,13.77,0,0,1,324.59,78.45Z"/><path class="cls-3" d="M325.7,79.56c0,13.37-20,24.2-44.7,24.2-16.41,0-30.74-4.79-38.52-11.91-3.94-3.6-6.19-7.81-6.19-12.29,0-13.36,20-24.2,44.71-24.2,21,0,38.69,7.88,43.44,18.47A13.77,13.77,0,0,1,325.7,79.56Z"/></g></svg>